<svg width="609" height="351" viewBox="0 0 609 351" fill="none" xmlns="http://www.w3.org/2000/svg">
<g clip-path="url(#clip0)">
<path d="M7.75222 94.6643V98.5825L9.81368 101.456V105.142L8.79747 109.467L12.4849 111.324L14.1398 115.242H17.624V118.522L11.6719 126.736L5.7198 130.654L1.16138 133.702L2.38083 136.575L4.84877 137.591L4.64552 141.306L8.12967 139.448L10.8009 141.306L17.5949 142.525H21.2823V145.805L23.547 147.024L21.4856 149.694L19.0176 146.82L17.7982 149.694L22.1243 156.485L19.6564 157.937L15.127 153.815L14.1108 155.876L16.1722 159.562L10.4234 163.915L14.5173 168.037H18.6402L21.7179 169.256L22.5308 164.931L24.7955 163.48V156.892L28.4829 161.216L32.4026 161.826L37.5417 165.947L38.7611 169.227H43.697L47.8199 174.364L49.4749 177.237H47.6167L44.1325 176.018L41.8678 172.739L40.2129 174.393L40.6194 178.515L36.932 177.296L33.2446 178.515L29.5572 176.454C29.7604 174.799 27.699 174.393 27.699 174.393V178.515L28.1055 196.596L31.5896 201.531L32.8091 206.668L37.1352 211.196L37.9482 218.597L42.0711 221.876C45.5552 227.42 45.7585 228.465 45.7585 228.465L44.1035 230.322L45.7585 234.241C45.7585 234.241 45.352 244.515 45.5552 243.906C45.7585 243.296 48.4297 245.966 48.4297 245.966H54.585V237.549L56.2399 233.428L58.7079 232.209L61.7856 230.351V222.138L68.5796 220.686L72.4993 219.671L77.0287 220.89L78.8869 221.905L84.839 222.515L81.3549 216.565L83.0098 216.362L84.868 217.581V210.586H87.1327L82.1969 206.058L84.4615 203.998L84.0551 202.14L82.4001 201.327L84.4615 199.063L87.1327 198.657L90.8201 196.596V193.723L97.411 192.272V195.552L94.072 207.887L97.3529 214.475L99.2111 220.831L100.46 225.156L99.2401 228.842L97.1787 231.919C95.9592 232.731 94.7108 234.182 94.7108 234.182C93.8978 236.04 93.6945 237.462 93.6945 237.462C94.7108 238.681 93.0848 238.913 94.7108 238.681C96.3657 238.478 94.5075 238.275 96.3657 238.478C98.2239 238.681 98.4562 238.536 99.4434 238.884C102.318 239.9 102.115 239.9 103.566 239.9C105.018 239.9 105.628 239.697 106.441 240.103C107.254 240.51 108.096 241.322 108.502 242.164C108.909 242.977 108.909 242.977 108.909 242.977C108.909 242.977 107.457 240.916 108.909 242.977C110.36 245.037 110.564 244.428 110.97 245.85C111.377 247.301 111.986 248.724 111.986 248.724C111.986 248.724 114.454 248.927 114.454 249.739C114.454 250.552 114.454 252.003 114.454 252.003L111.377 253.861C110.97 255.515 110.767 257.14 110.767 257.14L109.112 258.998L106.847 257.14C105.628 256.328 102.521 255.283 102.521 255.283L100.053 253.832C97.9917 252.381 95.9302 252.613 95.9302 252.613L95.727 255.283L95.1172 258.969L93.0558 257.75C92.6493 256.096 92.6493 256.096 92.6493 256.096L90.5878 258.969L90.3846 260.827C90.5878 262.684 89.3684 265.557 89.3684 265.557C89.3684 265.557 89.1651 267.009 89.3684 267.618C89.5716 268.228 89.7749 269.679 90.8201 270.085C91.8363 270.491 92.1267 270.782 93.0848 271.304C94.943 272.32 95.9592 276.035 95.9592 276.035C94.5075 276.645 93.0848 277.893 93.0848 277.893L97.2077 283.639H100.895V289.386L105.018 292.056L106.034 295.975L108.909 296.99L109.112 296.584L110.331 295.771L111.348 292.695L114.019 290.837L116.283 291.447L117.938 292.463L121.016 291.011L123.281 291.215L123.89 294.494C123.89 294.494 125.342 296.758 125.342 296.961C125.342 297.164 125.342 300.038 125.342 300.038L126.358 301.895V304.566L124.907 306.626L125.11 308.484L128.594 308.89L134.343 314.231V316.494L132.281 320.181V324.911L132.891 329.642L135.766 333.561L138.843 337.479C138.843 337.479 140.702 339.539 141.108 339.539C141.514 339.539 144.592 340.991 144.592 340.991C144.592 340.991 146.044 342.645 146.45 342.645C146.857 342.645 148.309 345.518 148.309 345.518C148.309 345.518 149.528 347.985 149.528 348.189C149.528 348.392 150.138 350.453 150.747 350.656C151.357 350.859 157.948 350.656 157.948 350.656L159.806 345.518V342.442L158.79 340.381L158.384 338.117L158.587 335.244L159.806 335.041L161.868 335.65L163.523 337.508L165.584 339.975L167.442 340.584L169.504 338.321L171.565 335.041L175.253 333.386H178.737L182.018 336.057L183.034 338.321L184.892 340.584L187.767 341.6L190.234 341.803L193.719 340.991L195.577 338.321L194.125 335.447L189.189 330.513L187.738 329.7L186.721 328.888L184.863 328.685L182.395 328.481C182.395 328.481 182.802 327.03 183.005 326.827C183.208 326.624 184.457 326.421 184.457 326.421L185.473 326.624L186.692 326.217C187.302 325.608 187.505 324.998 187.505 324.998C187.302 324.186 187.302 324.186 187.302 324.186C187.302 324.186 187.099 324.795 187.302 324.186C187.505 323.576 187.65 323.054 187.912 322.967C188.928 322.56 189.567 322.154 189.77 322.154C189.973 322.154 191.425 321.748 191.831 321.748C192.238 321.748 193.283 321.748 193.486 321.951C193.69 322.154 195.751 321.951 195.548 322.154C195.345 322.357 196.158 322.56 196.361 323.17C196.564 323.779 197.377 325.637 197.377 325.637L198.829 326.653L200.484 327.669L202.139 328.075H203.155C203.155 328.075 204.374 327.059 204.374 326.624C204.374 326.217 204.984 326.014 204.984 325.608C204.984 325.202 206.436 324.795 206.436 324.795C206.436 324.795 207.045 325.405 207.452 325.608C207.858 325.811 209.31 325.811 209.717 326.014C210.123 326.218 211.575 326.827 211.575 326.827L229.054 331.761L231.318 334.025L232.335 336.086L233.351 337.101L239.303 337.711L241.364 337.101L245.894 330.513V328.046L240.551 318.787L241.568 317.336L244.848 317.946L249.988 321.022L252.049 322.038L254.517 319.774L256.578 315.45L259.453 310.516L264.389 307.033L266.653 306.83L268.308 308.687L270.167 309.703L273.854 309.297L276.932 305.61V301.692L286.397 295.336L291.13 292.869L293.191 291.418L293.801 289.56L295.659 289.357L296.675 290.17L300.363 288.312L304.689 286.048L308.608 285.439L310.67 285.845V287.703H311.889L314.56 287.296C314.56 287.296 317.638 287.296 318.045 287.296C318.451 287.296 320.309 289.763 320.309 289.763L321.529 291.621L323.59 293.275H326.668L328.933 293.682L333.462 295.133L335.117 295.742L337.585 293.682L339.85 291.621L337.585 287.093L338.398 281.956L340.866 279.895L342.521 278.241L343.537 276.79L345.802 276.993L348.879 278.647L353.409 280.098L357.328 281.114L360.203 283.175L362.061 287.296L364.529 291.418C364.529 291.418 367.2 292.23 367.403 292.23C367.607 292.23 371.73 291.215 371.73 291.215L375.01 288.951L377.682 288.341L384.272 289.996L386.334 291.65L390.021 292.056L392.286 294.523C392.286 294.523 396.409 295.336 396.612 295.336C396.815 295.336 400.096 295.336 400.096 295.336L401.548 296.787L404.219 295.336L406.89 295.742L409.358 293.885L411.013 292.869L416.965 292.056L417.778 290.837L418.388 287.354L422.308 285.497C422.308 285.497 424.166 282.827 424.166 283.03C424.166 283.233 426.837 284.046 426.837 284.046L429.102 285.7L431.163 285.903L433.631 283.843L436.912 284.249C436.912 284.249 440.193 285.468 440.396 285.468C440.6 285.468 444.316 285.874 444.316 285.874L445.332 283.407L447.8 282.391L449.658 281.172V278.908L448.439 277.051V270.898L449.252 268.024L450.268 265.964L451.081 264.948V261.871L449.862 260.217L446.784 257.75L447.8 255.486L451.081 252.816L455.814 249.536L458.078 249.333L461.359 247.679L465.047 247.475L466.905 248.288L470.186 247.069L474.918 247.679L483.542 256.096L489.087 262.887L491.555 267.009L495.039 267.618L497.914 266.399L500.585 266.196H504.069L504.882 268.053L509.005 267.85L510.224 266.834L511.676 269.098L513.738 271.972L514.754 273.829L516.409 274.236L517.222 275.048L518.035 273.394L521.316 271.943L522.767 270.491L523.174 267.618L525.845 266.399L527.906 263.119L529.968 259.637L532.639 260.246V262.916V265.18L534.904 265.586V267.85L532.029 269.708L532.842 271.159L534.294 271.972L534.904 275.455L535.717 276.267L536.733 280.185L534.875 280.389L535.891 283.262L536.704 284.916L535.891 285.932L536.094 287.993L535.891 289.444C535.891 289.444 532.813 289.85 532.407 289.85C532 289.85 528.284 289.85 528.284 289.85L529.097 292.114L528.081 293.333L527.065 294.552L531.594 302.157L532.813 305.03C532.813 305.03 532.813 307.294 532.813 307.7C532.813 308.107 532.61 309.558 532.61 309.558L530.345 309.964L529.939 309.355L529.532 310.574L530.345 311.386L533.22 311.996L535.688 311.386L535.484 304.798L536.704 303.985L537.314 305.001L538.127 304.798L538.533 303.579L540.188 304.188L540.595 305.204L543.469 305.407L545.53 305.001L546.14 302.331L548.608 301.518L549.828 298.645L552.499 293.507V290.634V285.903L554.154 284.887V283.668L553.341 283.059L554.154 280.185L554.763 279.576L555.576 269.911L555.17 259.433L554.763 251.829L555.17 242.57L552.092 237.433L544.688 226.956L545.298 220.599L544.282 218.539L542.424 216.884L540.769 215.433L540.159 213.575L537.894 212.124L535.02 211.108L533.162 211.515L530.287 209.251L527.413 209.86L526.803 210.876L524.132 211.079L524.538 211.892L525.555 212.095L526.368 213.546C526.368 213.546 527.384 215.201 527.181 215.404C526.977 215.607 526.774 216.623 526.774 216.623L524.509 216.217L524.306 218.277L523.493 219.932L521.229 220.135L521.025 218.481L521.838 216.42L520.183 216.217L519.98 214.765L520.183 213.314L518.964 213.924L518.151 214.736V216.188L518.557 216.797L519.167 219.061V219.874H518.151C518.151 219.874 516.931 218.422 516.931 218.016C516.931 217.61 516.728 217.203 516.728 217.203L516.118 215.984L515.305 214.969L514.289 214.359C513.883 215.172 514.086 215.375 513.68 215.578C513.273 215.781 512.663 216.188 512.228 216.188C511.792 216.188 511.415 215.984 511.415 215.984L510.399 216.594C510.399 216.594 510.195 216.391 509.179 216.797C508.163 217.203 508.163 216.797 507.96 216.594C507.757 216.391 506.74 215.984 506.305 215.781C505.898 215.578 505.898 214.33 505.898 214.33C505.898 214.33 505.724 213.401 505.898 213.314C507.118 212.705 507.96 212.095 507.96 212.095L509.179 211.892C509.586 211.486 509.586 210.673 509.586 210.238C509.586 209.831 509.789 209.425 509.586 209.019C509.382 208.612 509.382 208.612 509.382 208.003C509.382 207.393 509.382 208.409 509.789 206.784C510.195 205.13 510.224 205.159 510.399 204.723C510.805 203.707 511.415 202.662 511.415 202.662L511.618 201.85C511.618 201.85 511.821 200.631 511.618 200.195C511.415 199.789 511.618 198.976 511.618 198.338C511.618 197.728 511.415 197.119 511.415 197.119L512.867 186.641L513.476 180.053L513.883 168.966L518.819 165.047L522.738 160.113C522.738 160.113 525.41 159.504 525.613 159.504C525.816 159.504 525.816 161.158 525.816 161.158L527.035 161.768L527.645 160.955L526.832 159.301L527.239 157.24H529.707L531.565 155.382L533.423 154.163H535.484V152.944L533.22 150.884L535.484 147.807L538.156 146.588L539.375 147.198L540.595 145.34L541.814 145.137C542.83 145.95 544.079 145.746 544.079 145.746L545.298 144.295V146.559L544.282 147.575L542.83 147.981L543.44 148.997L545.298 149.2C545.298 149.2 546.111 148.388 546.518 148.184C546.924 147.981 547.534 147.372 547.534 147.372C547.534 147.372 547.331 146.762 547.534 146.153C547.737 145.543 548.144 145.34 548.144 145.34C548.144 145.34 549.363 145.34 549.363 145.137C549.363 144.934 549.363 141.219 549.363 141.219L552.034 140.203L552.441 138.752L554.299 137.939L553.892 136.285H551.221L550.002 138.142L547.94 137.736L547.127 134.456L546.314 132.599L546.111 127.258L545.501 124.588V122.121L542.83 119.654L543.034 118L544.253 117.796L544.863 115.736L546.518 114.517L546.924 111.034L550.408 110.221L550.612 107.957L553.079 109.408L553.689 111.876H554.909L555.518 113.53L557.58 112.514C557.58 112.514 556.97 114.372 557.173 114.372C557.377 114.372 559.032 114.372 559.032 114.372V109.641L557.173 107.174V101.224L559.032 101.63V99.9757L557.377 99.5693L553.254 95.6511L554.067 93.1841L555.722 90.9202L558.19 91.5297L557.173 93.9967L559.032 97.0733L563.764 100.992L565.826 102.849L565.419 104.707L564.403 105.316L563.793 109.641L564.2 112.108L565.855 113.559L566.668 118.696V122.179L567.887 123.63C567.887 123.63 570.152 124.037 570.355 124.24C570.558 124.443 571.574 126.097 571.574 126.097L570.355 128.158V131.031L570.558 133.295L570.762 134.514C570.762 135.53 569.949 136.372 569.949 136.372C569.949 136.372 569.542 136.575 569.339 136.981C569.136 137.388 569.339 137.997 569.136 138.432C568.932 138.839 567.974 138.694 567.684 139.042C567.074 139.855 568.294 140.493 568.294 140.493H570.152L571.604 141.306V143.367V147.285L574.884 149.752V152.219L575.901 153.438L578.165 154.454L579.617 156.311L580.227 157.966L581.679 158.575L583.333 159.185L585.395 160.404C585.395 160.404 586.614 161.013 586.847 161.216C587.05 161.419 587.456 162.029 587.66 162.232C587.863 162.435 588.473 163.451 588.473 163.451C588.473 163.451 594.628 166.528 594.628 166.731C594.628 166.934 596.283 168.385 596.486 168.385C596.689 168.385 598.344 168.588 598.344 168.588L600.406 170.243L602.67 172.303C602.67 172.303 603.077 172.507 603.483 172.71C603.89 172.913 604.935 174.567 604.935 174.567L606.387 174.77L607.403 175.38C608.013 176.193 608.855 175.786 608.855 175.786L608.448 168.588L606.997 163.451L604.529 159.765L602.061 158.314L601.654 156.863L603.106 157.269L604.122 153.989L604.935 152.973C605.545 152.77 603.716 150.913 603.716 150.913L601.451 149.897L599.39 148.446C599.39 148.446 599.593 146.182 599.593 145.775C599.593 145.369 599.796 143.918 599.796 143.918V142.264C599.796 142.264 600.812 141.451 601.248 141.451C601.683 141.451 601.857 140.638 601.857 140.638L601.654 138.578L601.248 137.359L599.593 135.704H597.938C597.938 135.704 596.08 135.501 595.876 135.298C595.673 135.095 591.55 128.709 591.55 128.709L593.205 127.49L595.267 128.1L595.876 126.881L595.673 125.662L593.815 124.443L592.363 123.833H589.895L587.427 123.224C587.427 123.224 586.411 122.818 586.411 122.411C586.411 122.005 586.005 119.741 586.005 119.741L585.395 118.087C585.395 118.087 584.582 118.696 584.175 118.696C583.769 118.696 582.956 119.306 582.724 119.509C582.521 119.712 582.317 120.96 582.317 120.96L583.333 121.57L582.317 122.382L580.459 121.57L578.398 121.366L577.585 118.899L575.726 113.153L571.604 110.076L570.791 106.593L572.242 105.577V103.517L575.523 103.923L575.117 102.704L573.665 101.891L573.258 96.5508L575.726 96.9572L576.336 98.8147L577.556 99.4242V97.5667L575.901 95.7092C575.901 95.7092 576.714 93.0389 576.917 92.6326C577.12 92.2263 577.12 89.1497 577.12 89.1497L578.775 88.1339L578.978 85.6669H586.382L585.569 84.0125H583.101L582.085 76.205L582.898 75.7987V74.3475L580.633 73.9412L579.182 61.1997L578.775 55.4529L579.182 53.189L580.401 49.9093L582.869 48.4581L584.524 47.4423L583.508 46.6296H582.898L582.491 44.9753C582.491 44.9753 581.04 45.1784 581.04 44.9753C581.04 44.7721 578.775 45.3816 578.775 45.3816L577.759 43.5241L576.307 44.1336V45.3526H567.248L562.109 48.2259L558.19 49.0386L558.393 45.7589L560.454 44.7431L564.577 41.2602V38.59L561.296 31.5952L559.641 32.0015L558.828 33.6559L556.97 32.6401L555.518 29.7667L555.722 27.2997H556.941L557.551 28.954L559.815 29.1572L563.3 28.954L565.564 21.7561H568.235L569.048 22.5688H570.907L572.126 20.5081L575.001 18.2442H576.656L575.639 16.793L577.701 14.9355L577.904 13.2811H575.843L575.233 14.2969L574.217 13.6874L573.404 10.8141C573.404 10.8141 570.936 10.6109 570.732 10.8141C570.529 11.0172 567.045 10.8141 567.045 10.8141L567.452 9.36285C567.452 9.36285 568.265 8.95652 568.671 9.36285C569.078 9.76919 569.484 9.76919 569.484 9.76919L569.891 7.70849L570.703 6.48948H569.048C569.048 6.48948 567.829 6.89582 567.393 6.89582C566.958 6.89582 567.19 5.67681 567.19 5.67681H568.206H569.223L568.816 4.4578H567.8L566.987 3.64513V1.38126L565.129 2.19393L563.909 4.4578L558.567 5.67681L556.302 7.53434L557.318 8.55018L557.522 11.0172L556.07 10.6109L555.46 12.2653L556.477 13.0779L557.928 12.6716L559.148 12.8748L560.803 13.4843V14.5001L559.786 15.7191L558.567 16.3286L557.115 15.7191L556.099 15.1096L555.083 15.3128C554.067 14.5001 553.225 14.0938 553.225 14.0938C552.615 13.6874 551.366 14.5001 551.366 14.5001L549.508 14.7033C549.508 14.7033 549.102 14.5001 548.695 14.7033C548.289 14.9064 548.289 15.5159 547.882 15.9223C547.476 16.3286 547.476 16.5318 547.069 16.7349C546.663 16.9381 540.275 21.4658 540.275 21.4658L532.32 26.0516L529.039 26.2548L525.758 30.7825L522.884 32.4369L522.071 34.9039L521.461 36.123L521.054 37.9805L519.835 39.1995L518.383 39.6058V40.8248L517.977 42.4792L516.118 42.276L514.464 42.8855L514.667 44.3367H516.322L517.977 44.7431V46.6006V48.0518L519.632 46.3974L522.1 46.6006L524.161 48.255L525.177 49.474L524.161 50.9252L522.942 51.5347L521.925 51.3315L520.706 51.1283L519.254 51.941L517.802 52.3474C516.99 52.9569 516.583 52.9569 516.583 52.9569C516.583 52.9569 514.725 51.941 514.318 52.1442C513.912 52.3473 512.867 56.2656 512.867 56.2656L510.602 59.3421H507.118L507.321 62.2155L505.463 63.2313L504.853 66.1047L504.04 69.3844H501.572H497.652L494.981 65.4662L487.374 66.482L486.968 68.9491L483.89 70.1681L482.874 73.6509L480.812 77.337L478.141 78.3528L476.69 78.1497L476.486 77.1338C476.486 77.1338 474.628 77.1338 474.425 77.1338C474.222 77.1338 471.957 77.5401 471.957 77.5401L472.363 78.7592L469.286 78.9623H467.427C467.427 78.9623 468.444 77.9465 468.647 77.7433C468.85 77.5402 469.663 76.9306 469.663 76.9306C469.257 76.118 466.992 75.9148 466.789 75.9148C466.585 75.9148 461.243 77.9755 461.243 77.9755L462.056 84.9703L459.588 86.6247L458.572 84.5639L460.633 81.4874L459.414 79.2235L455.93 81.0811L449.136 84.3608L445.652 84.1576L445.448 85.6088L447.103 86.2183L447.307 87.8727L445.855 89.0917L444.635 88.8885L445.245 90.5429C445.245 90.5429 444.839 91.9941 445.042 91.5587C445.245 91.1524 446.494 91.1524 446.494 91.1524V90.1366L447.51 90.3397L447.916 91.7909L447.103 92.6036L448.12 93.6194L449.136 94.2289L449.339 95.0416V96.0574H446.261L446.058 98.1181L448.729 99.3372L447.916 100.556L445.448 100.962L442.371 100.353L440.919 98.6986L440.512 99.7145L439.293 101.166L438.48 103.226L433.341 103.43L432.325 101.572L431.512 102.791L432.325 105.055L433.138 109.379L433.544 111.846L430.06 111.44L425.124 109.583L424.514 106.1L423.063 105.49L422.656 107.348L420.188 106.941V103.459L422.656 103.865L422.453 102.007L420.798 101.601L422.017 100.788L415.02 94.6353L413.568 97.5086C413.568 97.5086 409.242 97.3055 409.242 97.7118C409.242 98.1181 407.587 96.8991 407.587 96.8991L405.119 98.5535L406.774 101.021L406.978 103.488L404.916 104.097L401.432 105.955L394.435 105.345L394.028 102.878L395.044 103.081L394.638 102.269H386.828L384.969 104.736L382.501 105.142V106.158H383.721V108.015L381.456 107.406L381.05 105.345L381.659 103.488C381.659 103.488 380.846 102.036 380.643 102.036C380.44 102.036 379.627 102.443 379.627 102.443L380.237 103.459L380.033 104.678H377.566L376.753 103.662L375.533 104.474L372.049 108.16L369.174 110.424H365.836L365.226 113.298L362.758 113.095L363.368 110.627L366.039 108.364L372.63 99.9467L379.424 93.3582L379.22 91.2975L376.346 89.8463L375.94 87.9888L377.391 88.1919L378.843 87.5824L377.391 84.5059L373.268 83.8964L372.455 81.2262L366.503 81.6325L366.3 83.2869L363.019 83.0837L363.629 81.8647L364.442 81.4584L364.035 80.2394L358.49 80.4425L358.693 78.7882L360.145 77.9755L361.596 77.1628L360.784 75.9438H357.909V74.928L356.254 75.9438L352.131 80.6747L351.928 83.5481L354.396 84.9993L354.802 86.8568H352.741L350.476 84.3898L348.415 84.593V86.0442L349.228 87.06L349.634 88.7144L347.776 88.308L347.573 86.8568H346.121L344.263 87.06L343.856 89.1207L341.185 89.5271L340.372 87.4663H336.046L336.453 88.6853L336.249 89.7012H333.781L332.33 90.1075C332.33 90.1075 329.252 91.1234 329.049 91.1234C328.846 91.1234 325.361 91.1234 325.361 91.1234L323.503 91.936L321.035 95.4189L319.38 99.192L319.787 102.675L319.99 104.329L316.912 105.345L314.241 103.894L315.257 103.081L310.728 103.284L304.369 102.065L301.901 101.862L301.088 103.923L300.682 106.187L301.495 108.857C301.495 108.857 301.495 110.308 301.292 110.511C301.088 110.715 301.292 111.527 301.292 111.527L303.15 112.137L303.76 113.153L304.369 114.807V116.026C304.369 116.026 304.776 117.042 304.979 117.477C305.182 117.883 304.979 118.493 304.979 118.493L304.369 119.712C304.369 119.712 303.76 120.321 303.76 120.931C303.76 121.54 304.166 124.849 304.166 124.849C304.166 124.849 304.166 125.662 303.963 126.3C303.76 126.91 304.369 129.377 304.369 129.377V130.596V132.25V133.469V134.485L303.15 135.095L301.93 134.282L300.275 133.266L299.666 131.205L298.853 128.942C298.853 128.942 298.65 128.129 299.056 127.723C299.463 127.316 300.072 126.271 300.072 126.271C300.479 125.256 301.292 124.617 301.292 124.617L301.495 123.804C301.088 122.992 300.885 122.15 300.885 122.15L300.682 120.292C300.682 120.292 300.479 119.073 300.682 119.073C300.885 119.073 301.901 118.87 301.901 118.87C301.901 118.87 302.918 118.261 302.918 118.058C302.918 117.854 302.714 117.042 302.714 117.042C301.698 116.839 300.043 116.839 300.043 116.839L299.23 116.229L298.824 114.778V113.124L298.214 111.905L295.949 109.844C295.949 109.844 295.34 108.828 294.933 108.625C294.527 108.422 294.323 108.218 293.714 108.625C293.104 109.031 292.901 109.437 292.494 109.437C292.088 109.437 291.681 109.641 291.681 109.641L293.133 113.124C293.133 113.124 291.275 113.53 291.072 113.53C290.868 113.53 289.852 112.92 289.852 112.92L290.055 110.656C290.055 110.656 288.4 110.25 288.197 110.25C287.994 110.25 287.181 111.266 287.181 111.266L286.281 112.543C286.281 112.543 286.891 113.356 286.891 113.559C286.891 113.762 288.11 114.778 288.342 115.213C288.546 115.62 289.562 116.868 289.562 116.868C289.562 116.868 291.217 118.319 291.42 118.522C291.623 118.725 292.03 119.741 292.03 119.741L291.826 120.757L290.607 120.96L288.952 120.351L287.5 118.493L286.891 117.274L285.874 116.461C285.874 116.461 285.265 116.055 285.061 115.852C284.858 115.649 284.655 114.836 284.655 114.401C284.655 113.994 284.452 112.949 284.452 112.949V111.934V110.279V109.263C285.468 108.857 285.903 108.654 286.107 108.451C286.31 108.248 286.92 107.435 286.92 107.435L287.326 106.216C287.326 106.216 287.529 105.809 287.529 105.403C287.529 104.997 287.529 104.59 287.529 104.184L286.078 103.575C286.078 103.575 285.671 104.794 285.671 105.229C285.671 105.635 285.468 106.245 285.468 106.245L284.858 107.261L283.842 107.87C283.842 107.87 282.622 108.48 281.984 108.683C281.374 108.886 280.764 108.886 280.125 109.089C279.516 109.292 278.471 109.699 278.471 109.699C278.471 109.699 277.861 110.308 277.861 110.511C277.861 110.715 278.064 111.324 278.267 112.166C278.471 112.978 278.471 113.82 278.674 114.023C278.877 114.226 278.877 115.039 279.08 115.474C279.284 115.881 279.08 116.926 279.08 116.926C279.08 116.926 278.587 117.709 278.267 117.942C277.251 118.754 276.816 120.002 276.816 120.002C276.816 120.002 276.409 120.002 276.206 120.815C276.003 121.628 276.003 122.034 276.003 122.034C276.003 122.034 275.393 122.847 275.19 123.05C274.986 123.253 274.986 123.456 274.783 123.659C274.58 123.862 274.173 124.269 273.97 124.675C273.767 125.081 273.767 125.081 273.767 125.691C273.767 126.3 274.173 126.707 274.173 127.142C274.173 127.548 274.377 128.158 274.377 128.158L275.19 129.377C276.206 129.174 276.845 129.174 277.048 129.174C277.251 129.174 277.658 129.377 278.5 129.783C279.313 130.19 280.358 130.393 280.967 130.596C281.577 130.799 281.984 131.612 281.984 131.612L282.797 136.14L282.39 139.216C282.39 139.216 281.171 140.232 280.735 140.667C280.329 141.074 279.08 142.118 279.08 142.118L280.3 143.773C280.3 143.773 281.113 143.773 281.519 143.773C281.926 143.773 282.971 144.382 282.971 144.382C282.971 144.382 283.174 145.601 283.377 145.834C283.581 146.066 284.19 147.053 284.19 147.053L284.394 148.272L283.987 149.491L282.768 149.287V148.272L281.955 145.601L277.425 144.382L277.222 141.103L279.69 139.245L278.674 134.514L276.409 132.453L273.535 133.469L271.88 138.81L269.208 140.464L265.289 145.195L259.134 147.459L255.214 146.443L251.526 144.382L250.075 140.899L251.73 140.29L252.949 141.944L255.62 144.005L258.901 141.741H261.369L264.244 138.868L266.712 137.649L267.118 133.731L269.992 133.121L269.179 130.451L268.163 129.435L269.383 127.374L270.834 122.643L273.099 117.912L274.957 116.693L275.567 114.226L273.912 111.963L274.319 109.496L275.974 109.292L280.3 104.358L279.69 99.6274C279.69 99.6274 275.364 97.973 275.364 98.1762C275.364 98.3794 274.957 96.9572 274.957 96.9572L273.302 97.7699L266.102 105.577L260.556 106.187V110.918L260.353 113.588L256.666 115.445L257.682 117.1L258.292 119.161H259.104L258.901 120.612L258.117 120.96L257.508 122.818L258.321 123.833L259.134 125.691L255.446 128.564L253.588 127.548L249.668 119.335L249.465 115.01L242.293 107.609L239.216 108.015V110.889L237.996 112.949L235.528 113.762V112.543H233.873V114.197H230.796L231.405 112.543L233.467 111.73V110.076L234.077 109.06L230.999 108.654V109.873L226.673 109.467L224.408 106.593L220.924 106.796L220.111 108.248L219.095 107.841L219.501 106.187L216.627 105.171L216.424 103.72L218.282 103.923V102.269L219.501 101.862H220.953L221.969 101.659L221.766 100.208L216.017 100.005L215.814 101.862L214.159 101.659L214.565 100.208L210.878 100.005L210.472 98.7857L204.723 98.9889L204.519 96.725L202.865 96.9282L202.661 98.1472L200.6 97.944L199.38 96.9282L198.364 97.3345L197.958 98.7857L197.145 100.44L192.006 98.3794L190.989 95.9123L191.193 91.5877L194.474 90.5719L196.332 90.9782L197.783 92.4295L197.987 93.4453L199.642 92.2263L200.251 86.4795L199.032 84.8252L197.377 83.374V82.155L195.925 82.7645L196.332 84.2157L196.128 85.87H194.474C194.474 85.87 193.661 86.2764 193.661 86.4795C193.661 86.6827 193.864 87.9307 193.864 87.9307C193.457 88.1339 192.412 88.3371 192.412 88.3371H191.396C191.396 88.3371 190.989 88.6854 190.583 88.7434C189.363 88.9466 188.725 89.1497 188.521 89.7592C188.318 90.3687 188.725 90.5719 188.725 90.9782C188.725 91.3846 188.521 92.4295 188.521 92.4295L187.07 93.2421H186.053C186.053 93.2421 185.85 94.0548 185.85 94.4611C185.85 94.8675 185.647 95.2738 185.444 95.477C185.241 95.6801 185.241 95.6801 184.834 95.8833C184.428 96.0865 184.224 95.8833 183.818 95.8833C183.411 95.8833 183.411 95.8833 182.802 95.8833C182.192 95.8833 181.582 95.8833 181.582 95.8833L181.379 94.4321C182.192 94.0258 182.831 94.0258 182.831 94.0258C182.627 93.4163 183.237 94.0258 182.627 93.4163C182.018 92.8068 183.237 94.0258 182.627 93.4163C182.018 92.8068 181.814 92.1973 181.814 92.1973C181.814 92.1973 182.018 91.1814 181.611 90.9782C181.205 90.7751 180.595 90.3687 180.595 90.3687C179.376 90.1656 178.737 90.7751 178.737 90.7751C178.737 90.7751 178.33 90.5719 177.924 90.5719C177.517 90.5719 178.127 90.5719 177.517 90.5719C176.908 90.5719 176.908 90.5719 176.501 90.3687L174.846 89.3529C174.846 89.3529 173.83 89.1497 173.394 89.1497C172.988 89.1497 172.175 89.3529 172.175 89.3529H170.723C170.723 89.3529 169.272 89.3529 169.068 89.3529C168.865 89.3529 167.007 94.6933 167.21 94.6933C167.413 94.6933 162.274 93.6775 162.274 93.6775L161.461 88.5402L159.4 88.1339L160.416 86.9149L161.635 87.1181L161.839 85.2605C161.839 85.2605 162.042 83.8093 161.635 83.8093C161.229 83.8093 159.167 84.0125 159.167 84.0125C159.167 84.0125 158.558 84.8252 158.355 85.0283C158.151 85.2315 157.745 87.2922 157.745 87.2922C157.745 87.2922 157.135 89.1497 156.932 89.3529C156.729 89.5561 156.322 90.3687 156.322 90.3687L154.667 90.9782L153.215 89.9624C153.215 89.9624 153.012 88.5112 152.809 88.1049C152.606 87.6985 152.606 86.2473 152.606 86.2473V84.3898C152.606 84.3898 152.199 83.1708 151.996 82.7354C151.793 82.3291 151.996 81.5164 151.996 81.5164C151.996 81.5164 153.012 80.0652 153.448 79.6589C153.854 79.2526 155.103 78.8462 155.103 78.8462L156.322 77.8304L157.774 76.3792L159.429 75.1602C159.429 75.1602 160.881 74.5507 161.084 74.3475C161.287 74.1443 162.942 73.738 162.942 73.738V67.1496L164.161 65.6984L166.629 61.7801L167.646 62.9991L167.036 64.2182L166.223 67.9042L167.442 69.3554V71.6193L167.849 74.0863C167.849 74.0863 166.833 74.899 167.239 74.899C167.646 74.899 168.691 75.7116 168.691 75.7116L169.301 78.3818L169.504 80.4425C169.504 80.4425 172.175 84.5639 172.378 84.7671C172.581 84.9703 177.721 85.9861 177.721 85.9861L181.205 85.5798L185.328 81.052V75.1021L185.937 62.5638L183.876 59.0809L183.673 56.6139L180.392 56.4107V55.598L182.86 54.7854L183.469 53.7695L182.018 53.3632L182.627 50.693L183.644 51.5057L184.253 52.7247L185.473 52.5215L185.27 49.8513L183.005 49.2418L181.35 48.8354L182.366 47.1811L180.508 47.3843L179.056 47.7906L176.182 45.7299L176.385 44.2787L173.714 43.8723L171.449 45.7299L168.981 45.9331L167.326 47.9938L167.529 51.0703L166.513 52.7247L164.655 54.1759L158.703 54.379L155.625 56.6429L155.219 60.3289L149.876 61.1416L147.002 63.8118L145.783 62.796L144.331 63.4055L144.737 64.4213L145.754 64.8277L145.347 66.2789L144.941 67.2947C144.941 67.2947 143.286 67.0915 143.082 67.0915C142.879 67.0915 141.427 67.9042 141.427 67.9042L141.631 69.7617L137.101 70.1681L136.492 72.0256V74.2895L137.304 77.366L134.837 78.3818L118.403 76.118L110.999 75.3053L110.389 76.118L112.654 76.5243L113.264 77.5401L110.796 77.9465L110.186 80.0072L110.796 81.2262L112.248 82.0389L112.654 82.8515V84.3027L112.451 85.1154L110.389 84.9122L109.983 82.8515L107.921 80.7908L104.844 78.7301L103.189 79.1365L102.986 80.5877L102.782 81.8067L101.563 81.4003V80.5877L99.5015 80.994L98.0497 81.8067L94.3623 84.2737L94.1591 87.5534L91.4879 88.1629L90.4717 86.5086L91.6912 85.4927L92.0976 84.4769L90.0362 84.2737L88.5845 84.68L87.365 86.7408L85.9133 87.9598C85.9133 87.9598 84.8971 87.3503 84.4615 87.3503C84.0551 87.3503 82.8066 89.6141 83.0098 89.8173C83.2131 90.0205 83.0098 90.63 82.8066 90.8331C82.6033 91.0363 78.4804 92.6907 78.4804 92.6907L71.6863 88.7724L73.5446 82.6193L74.9963 81.4003L74.3866 79.5428L72.7316 78.0916L71.7154 73.1575L69.4507 70.2842L68.841 66.5981L64.9213 64.9437L58.3304 69.0652L56.4722 68.862L56.269 65.7854L55.0495 63.9279L53.8301 64.5374L53.0171 65.5533L51.3621 65.9596V64.5084L50.3459 64.9147L50.5492 66.5691L52.0009 70.4873L53.8591 72.7512L54.6721 75.4214L55.4851 76.6404L55.8915 78.4979V80.7618L53.4236 82.213L49.9394 82.6193L48.72 82.8225L48.3135 85.2896V87.7566L46.0488 87.5534L44.5971 86.7408C44.5971 86.7408 42.1292 85.7249 41.9259 85.7249C41.7227 85.7249 40.9097 85.7249 40.7065 85.9281C40.5032 86.1312 39.6902 87.3793 39.6902 87.3793L39.2838 88.3951C38.4708 89.0046 38.4708 90.2527 38.4708 90.2527L35.5964 90.4558L34.1446 92.9229L32.0832 94.7804L29.6153 95.1867L27.9603 94.5772L26.7408 93.5614H24.2729L21.6017 93.1551L19.7435 92.7487L18.9305 92.3424L16.8691 93.1551C16.8691 93.1551 16.2594 93.3582 15.8529 93.5614C15.4464 93.7645 14.1979 95.0126 14.1979 95.0126L12.3397 94.8094L11.3235 94.6062C11.3235 94.6062 10.917 93.1551 10.5105 93.1551C10.104 93.1551 9.4943 93.3582 9.29106 93.3582C8.97168 93.4453 7.75222 94.6643 7.75222 94.6643Z" fill="#005BB4"/>
<path d="M207.655 90.4558L211.749 88.5983L214.014 89.6431V91.907L213.201 93.9387L210.936 93.126L209.078 92.5165H207.655V91.2685V90.4558Z" fill="#005BB4"/>
<path d="M237.561 101.05L239.826 100.208L240.842 100.643V102.878V105.548L239.826 106.187H237.967L237.561 102.472V101.05Z" fill="#5151CE"/>
<path d="M232.422 77.4241L229.141 81.1101V82.5613H232.422V85.6378L233.031 87.6985H230.157L230.97 89.7592L231.986 91.4136V92.6326L234.657 94.0838L237.532 95.7382V88.7434L239.187 86.4795V85.2605L241.858 82.184L245.778 79.5138L247.636 78.9043L249.697 76.4372L252.978 74.986L261.398 72.3158L270.021 70.6615L276.816 71.6773H284.016L287.5 69.8198V66.9464L285.032 66.1337H282.361L280.909 67.7881L277.832 67.1786L273.099 66.1628L272.693 64.5084L270.225 66.1628L267.35 64.5084L261.601 65.5242L251.73 70.8646L247.2 71.271L246.184 72.9253L244.529 73.9412C244.529 73.9412 242.264 74.1443 241.858 74.3475C241.451 74.5507 239.187 75.5665 239.187 75.5665L237.967 74.957L237.561 77.8304L234.483 78.8462L232.422 77.4241Z" fill="#0B5796"/>
<path d="M342.695 46.4845L340.634 48.342L336.743 51.4186V54.2919L337.962 56.3526L341.04 55.1046L344.147 54.4951L345.773 53.0729V49.7642L343.508 48.9515L343.943 47.094L342.695 46.4845Z" fill="#0B5796"/>
<path d="M344.553 56.3526L349.489 58.007V61.2867L347.021 61.8962L348.037 63.7538C349.054 63.7538 348.444 66.0176 348.444 66.0176L346.992 66.6271H344.524L343.305 64.9728L341.243 64.1601C340.634 62.9411 340.024 59.8355 340.024 59.8355C340.43 58.8197 341.243 57.5717 341.243 57.5717C342.289 56.759 344.553 56.3526 344.553 56.3526Z" fill="#0B5796"/>
<path d="M355.238 63.9569H357.299V66.0176L359.767 66.6271L360.377 68.0783L357.299 70.139H355.035H353.38L351.928 71.7934C350.912 72.4029 349.46 71.7934 349.46 71.7934C349.257 69.9359 349.46 69.1232 349.46 69.1232C349.46 69.1232 350.679 68.3105 351.115 67.9042C351.521 67.4978 351.928 66.0467 351.928 66.0467L351.521 64.1891L351.928 62.9701L355.238 63.9569Z" fill="#0B5796"/>
<path d="M444.026 59.8355L445.681 62.0994H448.352L452.068 58.8197V57.1653L449.803 58.4133L447.336 59.6323L446.087 58.8197L444.026 59.8355Z" fill="#0B5796"/>
<path d="M436.418 62.0994H441.151V67.2366L440.541 69.7037H436.418L433.341 75.0441H431.512L428.202 73.3897L426.576 73.1866L425.937 70.11L425.124 66.6271L427.185 64.9728L429.247 65.8145L430.873 64.9728L431.076 62.9121L433.98 63.3474L436.418 62.0994Z" fill="#0B5796"/>
<path d="M438.277 75.0441L446.697 76.2921L449.397 79.3687L447.945 80.3845H446.087L442.806 81.2262L441.151 82.4452V80.1813L442.806 78.7592L439.322 77.9175L438.277 76.0889V75.0441Z" fill="#0B5796"/>
<path d="M518.644 11.7719L521.112 12.3814L519.08 22.859L517.018 21.8141L515.973 18.7376L514.551 17.3154L515.16 14.2099L515.973 12.9909L518.644 11.7719Z" fill="#0B5796"/>
<path d="M538.185 201.414H540.856L542.307 204.085L547.65 206.552L546.198 208.003L550.321 209.019L550.931 212.937L552.15 215.404H555.867L557.086 219.09H559.351L575.175 229.974L573.955 231.222L567.568 229.974L565.332 231.832L566.145 235.518L568.613 239.842L571.081 243.557L574.362 246.634H576.626L579.094 245.792L581.562 248.898V250.929L578.572 250.842L577.352 249.594L575.494 250.842L575.697 252.903L577.149 255.37L576.51 257.402L571.574 253.106L571.807 249.188L568.497 245.705L566.232 241.38L561.732 238.71L559.873 231.512L554.125 226.578L552.47 222.283L548.782 221.035L544.253 214.678L543.44 212.008L541.175 210.557L541.988 208.496L542.395 206.465L539.52 204.404L538.185 201.414Z" fill="#0B5796"/>
<path d="M607.839 175.265C607.839 175.265 607.026 175.672 606.387 174.859L605.371 174.25L603.948 174.046C603.948 174.046 602.932 172.392 602.496 172.189C602.09 171.986 601.683 171.783 601.683 171.783L599.419 169.722L597.357 168.067C597.357 168.067 595.702 167.864 595.499 167.864C595.296 167.864 593.641 166.413 593.641 166.21C593.641 166.007 587.485 162.93 587.485 162.93C587.485 162.93 586.876 161.914 586.672 161.682C586.469 161.479 586.063 160.87 585.859 160.666C585.656 160.463 584.408 159.854 584.408 159.854L582.346 158.606L580.691 157.996L579.24 157.387L578.63 155.732L577.178 153.875L574.913 152.859L573.897 151.611V149.144L570.616 146.677V140.727L569.165 139.914H567.306C567.306 139.914 566.058 139.305 566.697 138.492C566.987 138.115 567.945 138.289 568.148 137.883C568.352 137.476 568.148 136.867 568.352 136.431C568.555 136.025 568.961 135.822 568.961 135.822C568.961 135.822 569.774 135.009 569.774 133.964L569.571 132.716L569.368 130.452V127.579L570.616 125.518C570.616 125.518 569.6 123.864 569.368 123.661C569.165 123.458 566.9 123.051 566.9 123.051L565.651 121.6V118.117L564.838 112.98L563.183 111.529L562.777 109.062L563.387 104.737L564.403 104.128L564.809 102.27L562.748 100.413L558.015 96.5234L556.157 93.4469L557.173 90.9799L554.705 90.3704L553.05 92.6342L552.237 95.1013L556.331 99.0195L557.986 99.4258V101.08L556.128 100.674V106.624L557.986 109.091V113.822C557.986 113.822 556.331 113.822 556.128 113.822C555.925 113.822 556.505 112.08 556.535 111.964L554.473 112.98L553.863 111.326H552.615L552.005 108.859L549.537 107.407L549.334 109.671L545.85 110.484L545.443 113.967L543.788 115.215L543.179 117.276L541.959 117.479L541.756 119.133L544.427 121.6V124.067L545.037 126.737L545.24 132.078L546.053 133.935L546.866 137.215L548.927 137.621L550.176 135.764H552.847L553.254 137.418L551.395 138.231L550.989 139.682L548.318 140.698C548.318 140.698 548.318 144.384 548.318 144.587C548.318 144.79 547.098 144.79 547.098 144.79C547.098 144.79 546.692 144.993 546.489 145.603C546.285 146.212 546.489 146.822 546.489 146.822C546.489 146.822 545.879 147.431 545.472 147.635C545.066 147.838 544.224 148.65 544.224 148.65L542.366 148.447L541.756 147.431L543.179 147.025L544.195 146.009V143.745L542.975 145.197C542.975 145.197 541.727 145.4 540.711 144.587L539.462 144.79L538.214 146.648L536.965 146.038L534.294 147.286L532.029 150.363L534.294 152.424V153.672H532.233L530.374 154.92L528.516 156.777H526.048L525.642 158.838L526.455 160.492L525.845 161.305L524.626 160.695C524.626 160.695 524.626 159.041 524.422 159.041C524.219 159.041 521.548 159.651 521.548 159.651L517.628 164.585L512.692 168.503L512.286 179.59L511.676 186.178L510.224 196.656C510.224 196.656 510.428 197.266 510.428 197.875C510.428 198.485 510.224 199.326 510.428 199.733C510.631 200.139 510.428 201.387 510.428 201.387L510.224 202.2C510.224 202.2 509.615 203.216 509.208 204.26C509.034 204.696 509.005 204.667 508.598 206.321C508.192 207.975 508.192 206.931 508.192 207.569C508.192 208.208 508.192 208.179 508.395 208.585C508.598 208.991 508.395 209.398 508.395 209.833C508.395 210.239 508.395 211.052 507.989 211.487L507.437 211.574L506.769 211.69C506.769 211.69 505.956 212.3 504.708 212.939C504.534 213.026 504.708 213.954 504.708 213.954C504.708 213.954 504.708 215.173 505.114 215.406C505.521 215.609 506.537 216.015 506.769 216.218C506.973 216.421 506.973 216.828 508.018 216.421C509.034 216.015 509.266 216.218 509.266 216.218L510.282 215.609C510.282 215.609 510.689 215.812 511.095 215.812C511.502 215.812 512.112 215.406 512.518 215.202C512.925 214.999 512.721 214.796 513.128 213.983L514.144 214.593L514.957 215.609L515.567 216.857C515.567 216.857 515.77 217.263 515.77 217.669C515.77 218.076 517.018 219.527 517.018 219.527H518.035V218.714L517.425 216.45L517.018 215.841V214.39L517.831 213.577L519.08 212.968L518.877 214.419L519.08 215.87L520.735 216.073L519.922 218.134L520.125 219.788L522.39 219.585L523.203 217.931L523.406 215.87L525.671 216.276C525.671 216.276 525.874 215.26 526.077 215.057C526.281 214.854 525.264 213.2 525.264 213.2L524.451 211.749L523.9 211.632L523.435 211.545L523.029 210.733L525.7 210.53L526.31 209.514L529.184 208.904L532.058 211.168L533.917 210.762L536.472 211.69L536.791 211.807L539.056 213.258L539.665 215.115L541.32 216.538L543.179 218.192L544.195 220.253L543.585 226.609L550.989 237.086L554.067 242.224L553.66 251.482L554.067 259.087L554.473 269.564L553.66 279.229L553.05 279.839L552.237 282.712L553.05 283.322V284.541L551.395 285.556V293.161L548.724 298.298L547.476 301.171L545.008 301.984L544.398 304.654L542.337 305.061L539.462 304.857L539.056 303.842L537.401 303.232L536.994 304.48L536.181 304.683L535.572 303.667L534.323 304.48L534.526 311.069L532.058 311.678L529.184 311.069L528.371 310.256L528.777 309.008L529.184 309.617L531.449 309.211C531.449 309.211 531.652 307.789 531.652 307.353C531.652 306.918 531.652 304.683 531.652 304.683L530.403 301.81L525.874 294.206L526.89 292.958L527.906 291.71L527.094 289.446C527.094 289.446 530.81 289.446 531.216 289.446C531.623 289.446 534.701 289.039 534.701 289.039L534.904 287.588L534.701 285.527L535.513 284.512L534.701 282.857L533.684 279.984L535.543 279.781L534.526 275.892L533.713 275.079L533.104 271.596L531.681 270.783L530.868 269.332L533.742 267.475V265.211L531.478 264.804V259.87L528.807 259.261L526.745 262.744L524.684 266.023L522.012 267.242L521.606 270.116L520.154 271.538L516.873 272.989L516.06 274.643L515.247 273.831L513.592 273.424L512.576 271.567L510.515 268.694L509.063 266.43L507.815 267.446L503.692 267.649L502.879 265.791H499.395L496.723 265.994L493.849 267.213L490.365 266.604L487.897 262.482L482.351 255.691L473.728 247.274L468.995 246.664L465.714 247.883L463.856 247.071L460.169 247.274L456.888 248.928L454.623 249.131L449.891 252.411L446.61 255.081L445.593 257.345L448.671 259.812L449.92 261.467V264.543L449.107 265.559L448.09 267.62L447.277 270.493V276.646L448.497 278.504V280.768L446.639 282.016L444.171 283.031L443.155 285.498C443.155 285.498 439.438 285.092 439.264 285.092C439.061 285.092 435.78 283.844 435.78 283.844L432.499 283.438L430.031 285.498L427.969 285.295L425.705 283.641C425.705 283.641 423.034 282.828 423.034 282.625C423.034 282.422 421.175 285.092 421.175 285.092L417.285 286.95L416.675 290.433L415.862 291.652L409.91 292.464L408.255 293.48L405.787 295.338L403.116 294.931L400.445 296.382L398.993 294.931C398.993 294.931 395.712 294.931 395.509 294.931C395.306 294.931 391.183 294.119 391.183 294.119L388.918 291.652L385.231 291.245L383.169 289.591L376.578 287.849L373.907 288.459L370.626 290.723C370.626 290.723 366.503 291.739 366.3 291.739C366.097 291.739 363.426 290.926 363.426 290.926L360.958 286.805L359.099 282.683L356.225 280.622L352.334 279.607L347.805 278.155L344.727 276.501L342.463 276.298L341.446 277.749L339.792 279.403L337.324 281.464L336.511 286.601L338.775 291.129L336.511 293.19L334.043 295.25L332.388 294.641L327.858 293.219L325.594 292.812H322.516L320.454 291.158L319.206 289.301C319.206 289.301 317.348 286.834 316.941 286.834C316.535 286.834 313.457 286.834 313.457 286.834L310.786 287.24H309.537V285.382L307.476 284.976L303.556 285.586L299.23 287.849L295.543 289.707L294.527 288.894L292.668 289.097L292.059 290.955L289.997 292.406L285.265 294.873L275.799 301.258V305.148L272.722 308.834L269.034 309.24L267.176 308.224L265.521 306.367L263.256 306.57L258.321 310.053L255.446 314.987L253.385 319.311L250.917 321.575L248.855 320.559L243.716 317.483L240.435 316.873L239.419 318.325L244.761 327.583V330.05L240.232 336.639L238.171 337.248L232.218 336.639L231.202 335.623L230.186 333.562L227.921 331.298L210.443 326.364C210.443 326.364 209.02 325.755 208.584 325.552C208.178 325.348 206.726 325.348 206.32 325.145C205.913 324.942 205.303 324.333 205.303 324.333C205.303 324.333 203.881 324.739 203.881 325.145C203.881 325.552 203.271 325.755 203.271 326.161C203.271 326.567 202.052 327.612 202.052 327.612H201.035L199.38 327.206L197.725 326.19L196.274 325.174C196.274 325.174 195.461 323.317 195.257 322.707C195.054 322.098 194.241 321.894 194.444 321.691C194.648 321.488 192.586 321.691 192.383 321.488C192.18 321.285 191.135 321.285 190.728 321.285C190.322 321.285 188.87 321.691 188.667 321.691C188.463 321.691 187.854 322.098 186.808 322.504C186.547 322.62 186.402 323.113 186.199 323.752C186.199 323.752 186.199 323.752 186.402 324.565C186.402 324.565 186.199 325.174 185.589 325.813L184.34 326.219L183.324 326.016C183.324 326.016 182.076 326.219 181.873 326.422C181.669 326.625 181.263 328.077 181.263 328.077L183.731 328.28L185.589 328.483L186.605 329.296L188.057 330.108L192.993 335.042L194.444 337.916L192.586 340.586L189.102 341.399L186.634 341.195L183.76 340.18L181.902 337.916L180.885 335.652L177.604 332.982H174.12L170.433 334.636L168.371 337.916L166.31 340.18L164.452 339.57L162.39 337.103L160.735 335.246L158.674 334.636L157.425 334.839L157.222 337.713L157.629 339.976L158.645 342.037V345.114L156.787 350.251C156.787 350.251 150.196 350.454 149.586 350.251C148.976 350.048 148.338 347.987 148.338 347.784C148.338 347.581 147.089 345.114 147.089 345.114C147.089 345.114 145.666 342.24 145.231 342.24C144.824 342.24 143.373 340.586 143.373 340.586C143.373 340.586 140.295 339.135 139.889 339.135C139.482 339.135 137.624 337.074 137.624 337.074L134.546 333.185L131.672 329.267L131.062 324.536V319.805L133.123 316.09V313.826L127.375 308.485L123.89 308.079L123.687 306.222L125.139 304.161V301.491L124.123 299.633C124.123 299.633 124.123 296.76 124.123 296.557C124.123 296.353 122.671 294.09 122.671 294.09L122.061 290.81L119.797 290.607L116.719 292.058L115.064 291.042L112.799 290.433L110.128 292.29L109.112 295.367L107.863 296.179L107.66 296.586L104.786 295.57L103.77 291.652L99.6466 288.981V283.235H95.9592L91.8363 277.488C91.8363 277.488 93.259 276.24 94.7108 275.63C94.7108 275.63 93.6945 271.944 91.8363 270.899C90.8782 270.348 90.5878 270.087 89.5716 269.651C88.5554 269.245 88.3231 267.794 88.1199 267.184C87.9167 266.575 88.1199 265.124 88.1199 265.124C88.1199 265.124 89.3684 262.25 89.1361 260.393L89.3394 258.535L91.4008 255.662C91.4008 255.662 91.4008 255.662 91.8073 257.316L93.8687 258.564L94.4785 254.849L94.6817 252.179C94.6817 252.179 96.7432 251.976 98.8046 253.427L101.273 254.878C101.273 254.878 104.35 255.894 105.599 256.736L107.863 258.593L109.518 256.736C109.518 256.736 109.722 255.081 110.128 253.456L113.206 251.598C113.206 251.598 113.206 250.147 113.206 249.335C113.206 248.522 110.738 248.319 110.738 248.319C110.738 248.319 110.128 246.868 109.722 245.445C109.315 243.994 109.112 244.633 107.66 242.572C107.631 242.543 107.602 242.485 107.573 242.456L107.66 242.572C107.631 242.543 107.573 242.369 107.254 241.759C106.847 240.947 106.005 240.105 105.192 239.699C104.379 239.292 103.74 239.495 102.318 239.495C100.866 239.495 101.098 239.495 98.1949 238.48C97.2077 238.131 96.9754 238.276 95.1172 238.073C93.259 237.87 95.1172 238.073 93.4623 238.276C91.8073 238.48 93.4623 238.276 92.4461 237.028C92.4461 237.028 92.6493 235.577 93.4623 233.749C93.4623 233.749 94.7107 232.298 95.9302 231.485L97.9917 228.408L99.2982 224.577L98.0788 220.253L96.2205 213.896L95.0301 211.516L92.9396 207.308L96.2205 194.973V191.693L89.6297 193.144V196.018L85.9423 198.078L83.2711 198.485L81.2097 200.748L82.8646 201.561L83.2711 203.419L81.0064 205.479L85.9423 210.007H83.6776V217.002L81.8194 215.754L80.1644 215.957L83.6486 221.907L77.6965 221.297L75.8383 220.282L71.3089 219.063L67.4183 220.078L60.6242 221.53V229.743L57.5465 231.601L55.0786 232.849L53.4236 236.97V245.387H47.2683C47.2683 245.387 44.5971 242.717 44.3938 243.327C44.1906 243.936 44.5971 233.662 44.5971 233.662L42.9421 229.743L44.5971 227.886C44.5971 227.886 44.3938 226.87 40.9097 221.297L36.7868 218.018L36.0609 211.545L35.9738 210.617L31.6477 206.089L30.3992 200.952L26.915 196.018L26.5086 177.936V173.814C26.5086 173.814 28.57 174.221 28.3668 175.875L32.0832 177.936L35.7706 176.688L39.458 177.936L39.0515 173.814L40.7065 172.16L42.9712 175.44L46.4553 176.688H48.3135L46.6585 173.814L42.5356 168.677H37.5998L36.3513 165.397L31.2122 161.276L27.3215 160.666L23.6341 156.342V162.93L21.3694 164.381L20.5565 168.706L17.4788 167.458H13.3559L9.26203 163.337L15.0109 159.012L12.9494 155.297L13.9656 153.236L18.495 157.358L20.963 155.935L16.6368 149.144L17.8563 146.271L20.3242 149.144L22.3856 146.474L20.121 145.226V141.946H16.4336L9.63948 140.727L6.9683 138.869L3.48415 140.727L3.68739 137.012L1.21945 135.996L0 133.123L4.52939 130.046L10.4815 126.128L16.4336 117.914V114.634H12.9494L11.2944 110.716L7.60706 108.859L8.62327 104.534V100.848L6.56181 97.9746V94.0564C6.56181 94.0564 7.78126 92.8374 8.01354 92.8374C8.21678 92.8374 8.82651 92.6342 9.26203 92.6342C9.66851 92.6342 10.075 94.0854 10.075 94.0854L11.0912 94.2886L12.9494 94.4918C12.9494 94.4918 14.1979 93.2437 14.6044 93.0406C15.0109 92.8374 15.6206 92.6342 15.6206 92.6342L17.6821 91.8216L18.495 92.2279L20.3532 92.6342L23.0244 93.0406H25.4923L26.7408 94.0564L28.3958 94.6659L30.8637 94.2596L32.9252 92.402L34.3769 89.935L37.2513 89.7318C37.2513 89.7318 37.2513 88.4838 38.0643 87.8743L38.4708 86.8585C38.4708 86.8585 39.2838 85.6395 39.487 85.4073C39.6903 85.2041 40.5032 85.2041 40.7355 85.2041C40.9387 85.2041 43.4067 86.2199 43.4067 86.2199L44.8584 87.0326L47.1231 87.2358V84.7687L47.5296 82.3017L48.7781 82.0985L52.2622 81.6922L54.7302 80.241V77.9771L54.3237 76.1196L53.5107 74.9006L52.6977 72.2304L50.8395 69.9665L49.4168 66.0773L49.2136 64.4229L50.2298 64.0166V65.4388L51.8848 65.0324L52.6977 64.0166L53.9462 63.4071L55.1947 65.2646L55.3979 68.3412L57.2562 68.5443L63.818 64.4229L67.7376 66.0773L68.3474 69.7634L70.6121 72.6367L71.6283 77.5708L73.2832 79.022L73.893 80.8795L72.4412 82.1276L70.583 88.2806L77.3771 92.1698C77.3771 92.1698 81.5 90.5155 81.7033 90.3123C81.9065 90.1091 82.1097 89.4996 81.9065 89.2965C81.7033 89.0933 82.9227 86.8294 83.3582 86.8294C83.7647 86.8294 84.81 87.4389 84.81 87.4389L86.2617 86.1909L87.5102 84.1302L88.9619 83.7239L91.0234 83.927L90.6169 84.9429L89.3684 85.9587L90.3846 87.6131L93.0558 87.0036L93.259 83.7239L96.9464 81.2568L98.3691 80.4442L100.431 80.0378V80.8505L101.679 81.2568L101.882 80.0088L102.086 78.5576L103.74 78.1513L106.818 80.212L108.88 82.2727L109.286 84.3334L111.348 84.5365L111.551 83.7239V82.3017L111.144 81.489L109.693 80.6764L109.083 79.4573L109.693 77.3966L112.161 76.9903L111.551 75.9745L109.286 75.5681L109.896 74.7555L117.3 75.5681L133.733 77.832L136.201 76.8162L135.388 73.7396V71.4758L135.998 69.6182L140.527 69.2119L140.324 67.3544C140.324 67.3544 141.776 66.5417 141.979 66.5417C142.182 66.5417 143.837 66.7449 143.837 66.7449L144.244 65.729L144.65 64.3068L143.634 63.9005L143.227 62.8847L144.679 62.2752L145.928 63.291L148.802 60.6208L154.145 59.8081L154.551 56.1221L157.629 53.8582L163.581 53.6551L165.439 52.2329L166.455 50.5785L166.252 47.502L167.907 45.4413L170.375 45.2381L172.64 43.3806L175.311 43.7869L175.107 45.2091L177.982 47.2698L179.434 46.8634L181.292 46.6603L180.276 48.3146L181.931 48.721L184.195 49.3305L184.399 52.0007L183.15 52.2039L182.54 50.9558L181.524 50.1432L180.914 52.8134L182.337 53.2197L181.727 54.2355L179.259 55.0482V55.8609L182.54 56.064L182.744 58.5311L184.805 62.014L184.195 74.5523V80.5022L180.072 85.03L176.588 85.4363C176.588 85.4363 171.449 84.4204 171.246 84.1882C171.043 83.9851 168.371 79.8637 168.371 79.8637L168.168 77.803L167.558 75.1328C167.558 75.1328 166.542 74.3201 166.107 74.3201C165.7 74.3201 166.716 73.5074 166.716 73.5074L166.31 71.0404V68.7765L165.061 67.3544L165.874 63.6393L166.484 62.3913L165.468 61.1723L163 65.0905L161.752 66.5127V73.1011C161.752 73.1011 160.097 73.5074 159.893 73.7106C159.69 73.9138 158.238 74.5233 158.238 74.5233L156.583 75.7423L155.161 77.1935L153.912 78.2093C153.912 78.2093 152.664 78.6157 152.257 79.022C151.851 79.4283 150.806 80.8795 150.806 80.8795C150.806 80.8795 150.602 81.6922 150.806 82.1276C151.009 82.5339 151.415 83.7819 151.415 83.7819V85.6395C151.415 85.6395 151.415 87.0907 151.618 87.497C151.822 87.9033 152.025 89.3545 152.025 89.3545L153.477 90.3704L155.132 89.7608C155.132 89.7608 155.538 88.9482 155.741 88.745C155.945 88.5418 156.554 86.6843 156.554 86.6843C156.554 86.6843 156.961 84.6236 157.164 84.4204C157.367 84.2173 157.977 83.4046 157.977 83.4046C157.977 83.4046 160.039 83.2014 160.445 83.2014C160.851 83.2014 160.648 84.6526 160.648 84.6526L160.445 86.5102L159.197 86.307L158.18 87.555L160.242 87.9614L161.055 93.0986C161.055 93.0986 165.7 94.0274 165.991 94.1144C165.845 93.9693 167.646 88.774 167.849 88.774C168.052 88.774 169.504 88.774 169.504 88.774H170.956C170.956 88.774 171.768 88.5709 172.204 88.5709C172.61 88.5709 173.656 88.774 173.656 88.774L175.311 89.7899C175.717 89.993 175.717 89.993 176.327 89.993C176.559 89.993 176.617 89.993 176.617 89.993H176.733C177.14 89.993 177.546 90.1962 177.546 90.1962C177.546 90.1962 178.156 89.5867 179.405 89.7899C179.405 89.7899 180.014 90.1962 180.421 90.3994C180.827 90.6026 180.624 91.6474 180.624 91.6474C180.624 91.6474 180.827 92.2279 181.408 92.8374C181.437 92.8664 181.437 92.8664 181.466 92.8954C181.553 92.9825 181.64 93.0696 181.64 93.0696C181.931 93.3598 181.495 92.9825 181.669 93.5049C181.669 93.5049 181.06 93.5049 180.218 93.9113L180.421 95.3625C180.421 95.3625 181.031 95.3625 181.669 95.3625C182.279 95.3625 182.279 95.3625 182.685 95.3625C183.092 95.3625 183.295 95.5656 183.702 95.3625C184.108 95.1593 184.108 95.1593 184.311 94.9561C184.515 94.753 184.718 94.3466 184.718 93.9403C184.718 93.534 184.921 92.6923 184.921 92.6923H185.937L187.389 91.8796C187.389 91.8796 187.592 90.8638 187.592 90.4284C187.592 90.0221 187.186 89.8189 187.389 89.1804C187.592 88.5709 188.202 88.3677 189.451 88.1645C189.857 88.1065 190.263 87.7582 190.263 87.7582H191.28C191.28 87.7582 192.296 87.555 192.731 87.3519C192.731 87.3519 192.528 86.1038 192.528 85.9007C192.528 85.6975 193.341 85.2912 193.341 85.2912H194.996L195.199 83.6368L194.793 82.1856L196.216 81.5761V82.7951L197.871 84.2463L199.119 85.9007L198.509 91.6474L196.854 92.8954L196.651 91.8796L195.199 90.4284L193.341 90.0221L190.06 91.0379L189.857 95.3625L190.873 97.8295L196.012 99.8902L196.825 98.2359L197.232 96.8137L198.248 96.4073L199.496 97.4232L201.558 97.6264L201.761 96.3783L203.416 96.1751L203.619 98.439L209.368 98.2359L209.775 99.4839L213.462 99.687L213.056 101.109L214.711 101.312L214.914 99.4549L220.663 99.658L220.866 101.08L219.85 101.283H218.398L217.15 101.69V103.344L215.291 103.141L215.495 104.592L218.369 105.608L217.962 107.262L218.979 107.669L219.792 106.217L223.276 106.014L225.54 108.888L229.867 109.294V108.075L232.944 108.481L232.335 109.497V111.152L230.273 111.964L229.663 113.619H232.741V111.964H234.396V113.212L236.864 112.4L238.112 110.339V107.465L241.19 107.059L248.391 114.46L248.594 118.785L252.514 126.999L254.372 128.014L258.088 125.141L257.275 123.284L256.462 122.268L257.072 120.41L257.885 120.004L258.088 118.553H257.275L256.666 116.492L255.649 114.838L259.337 112.98L259.54 110.31V105.579L265.086 104.969L272.286 97.162L273.941 96.3493C273.941 96.3493 274.348 97.8005 274.348 97.5973C274.348 97.3942 278.674 99.0485 278.674 99.0485L279.283 103.779L274.957 108.713L273.302 108.917L272.896 111.384L274.551 113.648L273.941 116.115L272.083 117.363L269.818 122.094L268.366 126.824L267.118 128.885L268.134 129.901L268.947 132.571L266.073 133.181L265.666 137.099L263.198 138.347L260.324 141.22H257.856L254.575 143.484L251.904 141.424L250.655 139.769L249 140.379L250.452 143.862L254.14 145.922L258.059 146.938L264.215 144.674L268.134 139.943L270.805 138.289L272.46 132.949L275.335 131.933L277.599 133.993L278.616 138.724L276.148 140.582L276.351 143.862L280.88 145.11L281.693 147.78V148.796L282.942 148.999L283.348 147.78L283.145 146.532C283.145 146.532 282.535 145.516 282.332 145.284C282.129 145.081 281.926 143.832 281.926 143.832C281.926 143.832 280.909 143.223 280.474 143.223C280.067 143.223 279.225 143.223 279.225 143.223L277.977 141.569C277.977 141.569 279.225 140.553 279.632 140.117C280.038 139.711 281.287 138.666 281.287 138.666L281.693 135.59L280.88 131.062C280.88 131.062 280.474 130.249 279.864 130.046C279.254 129.843 278.209 129.64 277.396 129.233C276.583 128.827 276.148 128.624 275.944 128.624C275.741 128.624 275.132 128.624 274.086 128.827L273.273 127.579C273.273 127.579 273.07 126.97 273.07 126.563C273.07 126.157 272.664 125.751 272.664 125.112C272.664 124.503 272.664 124.503 272.867 124.096C273.07 123.69 273.477 123.284 273.68 123.08C273.883 122.877 273.883 122.674 274.086 122.471C274.29 122.268 274.899 121.455 274.899 121.455C274.899 121.455 274.899 121.049 275.102 120.236C275.306 119.423 275.712 119.423 275.712 119.423C275.712 119.423 276.119 118.175 277.164 117.363C277.483 117.101 277.977 116.347 277.977 116.347C277.977 116.347 278.18 115.331 277.977 114.896C277.774 114.489 277.774 113.648 277.57 113.444C277.367 113.241 277.367 112.429 277.164 111.587C276.961 110.774 276.757 110.136 276.757 109.933C276.757 109.729 277.367 109.12 277.367 109.12C277.367 109.12 278.383 108.714 279.022 108.51C279.632 108.307 280.271 108.307 280.88 108.104C281.49 107.901 282.739 107.291 282.739 107.291L283.755 106.682L284.365 105.666C284.365 105.666 284.568 105.056 284.568 104.65C284.568 104.244 284.974 102.996 284.974 102.996L286.426 103.605V104.853C286.426 105.26 286.223 105.666 286.223 105.666L285.816 106.914C285.816 106.914 285.207 107.727 285.003 107.93C284.8 108.133 284.394 108.336 283.348 108.743V112.429C283.348 112.429 283.552 113.444 283.552 113.88C283.552 114.286 283.755 115.128 283.958 115.331C284.161 115.534 284.771 115.94 284.771 115.94L285.787 116.753L286.397 118.001L287.82 119.859L289.475 120.468L290.723 120.265L290.926 119.249C290.926 119.249 290.52 118.233 290.317 118.001C290.113 117.798 288.458 116.347 288.458 116.347C288.458 116.347 287.442 115.099 287.21 114.692C287.007 114.286 285.758 113.241 285.758 113.038C285.758 112.835 285.119 111.964 285.119 111.964L285.932 110.716C285.932 110.716 286.745 109.7 286.949 109.7C287.152 109.7 288.807 110.107 288.807 110.107L288.604 112.371C288.604 112.371 289.62 112.98 289.823 112.98C290.026 112.98 291.884 112.574 291.884 112.574L290.433 109.091C290.433 109.091 290.839 108.888 291.246 108.888C291.652 108.888 291.855 108.481 292.494 108.075C293.104 107.669 293.307 107.872 293.714 108.075C294.12 108.278 294.73 109.294 294.73 109.294L296.995 111.355L297.604 112.603V114.257L298.011 115.708L298.824 116.318C298.824 116.318 300.479 116.318 301.495 116.521C301.495 116.521 301.698 117.334 301.698 117.537C301.698 117.74 300.682 118.349 300.682 118.349C300.682 118.349 299.666 118.553 299.433 118.553C299.201 118.553 299.433 119.801 299.433 119.801L299.637 121.658C299.637 121.658 299.84 122.471 300.246 123.313L300.043 124.125C300.043 124.125 299.23 124.735 298.795 125.78C298.795 125.78 298.185 126.795 297.778 127.231C297.372 127.637 297.575 128.479 297.575 128.479L298.388 130.743L298.998 132.803L300.653 133.819L301.872 134.632L303.121 134.022V128.885C303.121 128.885 302.511 126.418 302.714 125.809C302.918 125.199 302.918 124.357 302.918 124.357C302.918 124.357 302.511 121.078 302.511 120.439C302.511 119.83 303.121 119.22 303.121 119.22L303.731 117.972C303.731 117.972 303.934 117.363 303.731 116.956C303.527 116.55 303.121 115.505 303.121 115.505V114.286L302.511 112.632L301.901 111.616L300.043 111.006C300.043 111.006 299.84 110.194 300.043 109.991C300.246 109.787 300.246 108.336 300.246 108.336L299.433 105.666L299.84 103.402L300.653 101.341L303.121 101.545L309.479 102.793L314.009 102.589L312.993 103.402L315.664 104.853L318.741 103.837L318.538 102.183L318.132 98.7002L319.787 95.0142L322.255 91.5313L324.113 90.7186C324.113 90.7186 327.597 90.7186 327.8 90.7186C328.003 90.7186 331.081 89.7028 331.081 89.7028L332.504 89.2965H334.972L335.175 88.2806L334.769 87.0326H339.095L339.908 89.0933L342.579 88.687L342.985 86.6263L344.844 86.4231H346.295L346.499 87.8743L348.357 88.2806L347.95 86.6263L347.137 85.6104V84.1592L349.199 83.9561L351.463 86.4231H353.525L353.118 84.5656L350.65 83.1144L350.854 80.241L354.977 75.5101L356.632 74.4943V75.5101H359.506L360.319 76.7581L358.867 77.5708L357.445 78.3835L357.241 80.0378L362.787 79.8347L363.193 81.0827L362.38 81.489L361.771 82.7371L365.052 82.9402L365.255 81.2859L371.207 80.8795L372.02 83.5497L376.143 84.1592L377.595 87.2358L376.143 87.8453L374.691 87.6421L375.098 89.4996L377.972 90.9508L378.175 93.0115L371.381 99.5709L364.79 107.988L362.119 110.252L361.509 112.719L363.977 112.922L364.587 110.049H367.868L370.742 107.785L374.227 104.099L375.475 103.286L376.288 104.302H378.756L378.959 103.083L378.349 102.067C378.349 102.067 379.162 101.661 379.366 101.661C379.569 101.661 380.382 103.112 380.382 103.112L379.772 104.969L380.179 107.03L382.443 107.64V105.782H381.195V104.766L383.663 104.36L385.521 101.893H393.331L393.738 102.706L392.721 102.502L393.128 104.969L400.125 105.579L403.609 103.721L405.671 103.112L405.468 100.645L403.813 98.1778L406.281 96.5234C406.281 96.5234 407.936 97.7715 407.936 97.3361C407.936 96.9298 412.262 97.1329 412.262 97.1329L413.714 94.2596L420.711 100.413L419.462 101.225L421.117 101.632L421.321 103.489L418.853 103.083V106.566L421.321 106.972L421.727 105.115L423.15 105.724L423.759 109.207L428.695 111.064L432.179 111.471L431.773 109.004L430.96 104.679L430.147 102.415L430.96 101.167L431.976 103.025L437.115 102.822L437.928 100.761L439.177 99.3097L439.583 98.2939L441.035 99.9483L444.113 100.558L446.581 100.151L447.394 98.9324L444.722 97.6844L444.926 95.6237H448.003V94.6079L447.8 93.7952L446.784 93.1857L445.768 92.1698L446.581 91.3572L446.174 89.906L445.158 89.7028V90.7186C445.158 90.7186 443.909 90.7186 443.706 91.125C443.503 91.5313 443.909 90.1091 443.909 90.1091L443.3 88.4548L444.519 88.6579L445.971 87.4099L445.768 85.7555L444.113 85.146L444.316 83.7239L447.8 83.927L454.594 80.6473L458.078 78.7898L459.327 81.0537L457.265 84.1302L458.282 86.1909L460.75 84.5365L459.937 77.5418C459.937 77.5418 465.279 75.4811 465.482 75.4811C465.685 75.4811 467.95 75.6842 468.357 76.4969C468.357 76.4969 467.544 77.1064 467.34 77.3096C467.137 77.5127 466.092 78.5576 466.092 78.5576H467.95L471.028 78.3544L470.621 77.1064C470.621 77.1064 472.886 76.7001 473.089 76.7001C473.292 76.7001 475.151 76.7001 475.151 76.7001L475.354 77.7159L476.806 77.9191L479.477 76.9032L481.538 73.2172L482.554 69.7343L485.632 68.5153L486.039 66.0483L493.646 65.0324L496.317 68.9217H502.675L503.488 65.6419L504.098 62.7686L505.956 61.7527L505.753 58.8794H509.237L511.502 55.8028C511.502 55.8028 512.518 51.9136 512.954 51.6814C513.36 51.4783 515.218 52.4941 515.218 52.4941C515.218 52.4941 515.625 52.4941 516.467 51.8846L517.89 51.4783L519.341 50.6656L520.59 50.8688L521.606 51.0719L522.825 50.4624L523.842 49.0402L522.825 47.7922L520.764 46.1378L518.296 45.9347L516.641 47.589V44.3093L514.986 43.903H513.331L513.128 42.4518L514.783 41.8423L516.641 42.0455L517.048 40.3911V39.1431L518.499 38.7367L519.719 37.4887L520.125 35.6312L520.735 34.3831L521.548 31.9161L524.422 30.2617L527.703 25.734L530.984 25.5308L539.201 21.0031C539.201 21.0031 545.559 16.4754 545.995 16.2722C546.401 16.069 546.401 15.8659 546.808 15.4595C547.214 15.0532 547.214 14.4437 547.621 14.2115C548.027 13.9793 548.434 14.2115 548.434 14.2115L550.292 14.0083C550.292 14.0083 551.541 13.1956 552.15 13.602C552.15 13.602 552.963 14.0083 554.008 14.85L555.025 14.6468L556.041 15.2563L557.464 15.8659L558.712 15.2563L559.728 14.0083V12.9925L558.073 12.383L556.825 12.1798L555.373 12.5861L554.357 11.7735L554.967 10.1191L556.389 10.5254L556.186 8.05841L555.17 7.04257L557.435 5.18504L562.777 3.93701L564.025 1.67314L565.884 0.860466V3.12434L566.697 3.93701H567.713L568.119 5.18504H566.058C566.058 5.18504 565.855 6.43307 566.261 6.43307C566.668 6.43307 567.916 6.02673 567.916 6.02673H569.571L568.758 7.27476L568.352 9.33546C568.352 9.33546 567.945 9.33546 567.539 8.92913C567.132 8.52279 566.319 8.92913 566.319 8.92913L565.913 10.3803C565.913 10.3803 569.397 10.5835 569.6 10.3803C569.803 10.1772 572.271 10.3803 572.271 10.3803L573.084 13.2537L574.1 13.8632L574.71 12.8474H576.772L576.568 14.5017L574.507 16.3593L575.523 17.8105H573.868L570.994 20.0743L569.745 22.135H567.887L567.074 21.3224H564.403L562.138 28.5203L558.654 28.7235L556.389 28.5203L555.78 26.8659H554.531L554.328 29.333L555.78 32.2063L557.638 33.2222L558.451 31.5678L560.106 31.1615L563.387 38.1563V40.8265L559.264 44.3093L557.202 45.3252L556.999 48.6049L560.89 47.7922L566.029 44.9188H575.088V43.6708L576.51 43.0613L577.526 44.9188C577.526 44.9188 579.791 44.3093 579.791 44.5125C579.791 44.7157 581.243 44.5125 581.243 44.5125L581.649 46.1669H582.259L583.275 46.9795L581.62 47.9954L579.152 49.4176L577.904 52.6973L577.497 54.9611L577.904 60.7079L579.356 73.4494L581.62 73.8557V75.3069L580.807 75.7133L581.824 83.5207H584.292L585.104 85.1751H577.701L577.497 87.6421L575.843 88.6579C575.843 88.6579 575.842 91.7345 575.639 92.1408C575.436 92.5472 574.623 95.2174 574.623 95.2174L576.278 97.0749V98.9324L575.03 98.3229L574.42 96.4654L571.952 96.0591L572.358 101.399L573.81 102.212L574.217 103.46L570.936 103.054V105.115L569.484 106.13L570.297 109.613L574.42 112.69L576.278 118.437L577.091 120.904L579.152 121.107L581.011 121.919L582.027 121.107L581.011 120.497C581.011 120.497 581.214 119.278 581.417 119.046C581.62 118.843 582.433 118.233 582.84 118.233C583.246 118.233 584.088 117.624 584.088 117.624L584.698 119.278C584.698 119.278 585.104 121.542 585.104 121.948C585.104 122.355 586.121 122.761 586.121 122.761L588.589 123.371H591.057L592.508 123.98L594.367 125.228L594.57 126.476L593.96 127.695L591.899 127.086L590.244 128.334C590.244 128.334 594.367 134.69 594.57 134.893C594.773 135.096 596.631 135.299 596.631 135.299H598.286L599.941 136.954L600.348 138.202L600.551 140.263C600.551 140.263 600.348 141.075 599.941 141.075C599.535 141.075 598.518 141.888 598.518 141.888V143.542C598.518 143.542 598.315 144.993 598.315 145.4C598.315 145.806 598.112 148.07 598.112 148.07L600.174 149.521L602.438 150.537C602.438 150.537 604.296 152.395 603.687 152.598L602.874 153.614L601.857 156.893L600.406 156.487L600.812 157.938L603.28 159.36L605.748 163.075L607.2 168.213L607.839 175.265Z" fill="#005BB4"/>
</g>
<defs>
<clipPath id="clip0">
<rect width="609" height="350" fill="white" transform="translate(0 0.800781)"/>
</clipPath>
</defs>
</svg>
