<svg width="80" height="80" viewBox="0 0 80 80" fill="none" xmlns="http://www.w3.org/2000/svg">
<circle cx="40" cy="40" r="39.5" stroke="#8E92A0"/>
<path d="M22 54.5833L58 54.5833C58.5304 54.5833 59.0391 54.3638 59.4142 53.9731C59.7893 53.5824 60 53.0525 60 52.5L60 44.1666L58.214 44.1666C56.222 44.1666 54.374 42.7479 54.054 40.7C53.9565 40.102 53.9855 39.489 54.1389 38.9039C54.2923 38.3188 54.5664 37.7756 54.9421 37.3122C55.3178 36.8488 55.7861 36.4764 56.3143 36.221C56.8424 35.9655 57.4177 35.8332 58 35.8333L60 35.8333L60 27.5C60 26.9474 59.7893 26.4175 59.4142 26.0268C59.0391 25.6361 58.5304 25.4166 58 25.4166L22 25.4166C21.4696 25.4166 20.9609 25.6361 20.5858 26.0268C20.2107 26.4175 20 26.9474 20 27.5L20 35.8333L22 35.8333C22.5823 35.8332 23.1576 35.9655 23.6857 36.2209C24.2139 36.4764 24.6822 36.8488 25.0579 37.3122C25.4336 37.7756 25.7077 38.3188 25.8611 38.9039C26.0145 39.489 26.0435 40.102 25.946 40.7C25.626 42.7479 23.778 44.1666 21.786 44.1666L20 44.1666L20 52.5C20 53.0525 20.2107 53.5824 20.5858 53.9731C20.9609 54.3638 21.4696 54.5833 22 54.5833ZM46 46.25C45.4696 46.25 44.9609 46.0305 44.5858 45.6398C44.2107 45.2491 44 44.7192 44 44.1666C44 43.6141 44.2107 43.0842 44.5858 42.6935C44.9609 42.3028 45.4696 42.0833 46 42.0833C46.5304 42.0833 47.0391 42.3028 47.4142 42.6935C47.7893 43.0842 48 43.6141 48 44.1666C48 44.7192 47.7893 45.2491 47.4142 45.6398C47.0391 46.0305 46.5304 46.25 46 46.25ZM46.0845 31.7327C46.9309 32.3939 47.1039 33.6057 46.4763 34.4773L36.8153 47.8954C36.152 48.8167 34.8556 49.0017 33.961 48.3028L33.9155 48.2673C33.0691 47.606 32.8961 46.3943 33.5237 45.5226L43.1847 32.1046C43.848 31.1833 45.1444 30.9982 46.039 31.6971L46.0845 31.7327ZM34 33.75C34.5304 33.75 35.0391 33.9695 35.4142 34.3602C35.7893 34.7509 36 35.2808 36 35.8333C36 36.3858 35.7893 36.9157 35.4142 37.3064C35.0391 37.6972 34.5304 37.9166 34 37.9166C33.4696 37.9166 32.9609 37.6972 32.5858 37.3064C32.2107 36.9157 32 36.3858 32 35.8333C32 35.2808 32.2107 34.7509 32.5858 34.3602C32.9609 33.9695 33.4696 33.75 34 33.75Z" fill="#D41C3D"/>
</svg>
