<svg width="204" height="52" viewBox="0 0 204 52" fill="none" xmlns="http://www.w3.org/2000/svg">
<path d="M51.8826 26.9928H45.1901C45.6195 28.6306 45.8482 30.3497 45.8482 32.1222C45.8482 39.9003 41.4449 46.6499 34.9951 50.0143C44.6936 48.0711 52 39.5072 52 29.2368C52 28.4789 51.9602 27.7302 51.8826 26.9928Z" fill="url(#paint0_linear)"/>
<path d="M43.6114 26.9928H40.0028C39.4852 35.0548 34.2305 41.8277 26.9928 44.5572V51.5778C36.6696 49.6177 43.9541 41.0641 43.9541 30.8091C43.9541 29.5062 43.8365 28.2308 43.6114 26.9928Z" fill="url(#paint1_linear)"/>
<path d="M25.0072 51.8826V45.1901C23.3694 45.6195 21.6503 45.8482 19.8778 45.8482C12.0997 45.8482 5.35011 41.4449 1.98572 34.9951C3.92894 44.6936 12.4929 52 22.7633 52C23.5212 52 24.2698 51.9602 25.0072 51.8826Z" fill="url(#paint2_linear)"/>
<path d="M25.0072 43.6114V40.0029C16.9452 39.4853 10.1724 34.2305 7.44286 26.9928H0.422241C2.38236 36.6697 10.936 43.9541 21.191 43.9541C22.4939 43.9541 23.7693 43.8366 25.0072 43.6114Z" fill="url(#paint3_linear)"/>
<path d="M26.9928 8.38857V11.9971C35.0548 12.5147 41.8277 17.7695 44.5572 25.0072H51.5778C49.6177 15.3303 41.064 8.04586 30.809 8.04586C29.5061 8.04586 28.2307 8.16344 26.9928 8.38857Z" fill="url(#paint4_linear)"/>
<path d="M26.9928 6.80992V0.117399C27.7302 0.0397914 28.4788 0 29.2367 0C39.5072 0 48.0711 7.30637 50.0143 17.0049C46.6499 10.5551 39.9003 6.1518 32.1222 6.1518C30.3497 6.1518 28.6306 6.38047 26.9928 6.80992Z" fill="url(#paint5_linear)"/>
<path d="M25.0072 0.422157C15.3304 2.38227 8.0459 10.9359 8.0459 21.1909C8.0459 22.4938 8.16348 23.7692 8.38861 25.0072H11.9972C12.5148 16.9451 17.7695 10.1723 25.0072 7.44278V0.422157Z" fill="url(#paint6_linear)"/>
<path d="M0.117399 25.0071H6.80992C6.38047 23.3694 6.1518 21.6503 6.1518 19.8778C6.1518 12.0997 10.5551 5.35005 17.0049 1.98565C7.30637 3.92887 0 12.4928 0 22.7632C-1.79963e-07 23.5211 0.0397911 24.2698 0.117399 25.0071Z" fill="url(#paint7_linear)"/>
<path d="M68.007 32.526C68.491 32.526 68.9163 32.5187 69.283 32.504C69.6643 32.4747 69.9797 32.4307 70.229 32.372V28.962C70.0823 28.8887 69.8403 28.83 69.503 28.786C69.1803 28.7273 68.7843 28.698 68.315 28.698C68.007 28.698 67.677 28.72 67.325 28.764C66.9877 28.808 66.6723 28.9033 66.379 29.05C66.1003 29.182 65.8657 29.3727 65.675 29.622C65.4843 29.8567 65.389 30.172 65.389 30.568C65.389 31.3013 65.6237 31.8147 66.093 32.108C66.5623 32.3867 67.2003 32.526 68.007 32.526ZM67.831 22.274C68.6523 22.274 69.3417 22.384 69.899 22.604C70.471 22.8093 70.9257 23.11 71.263 23.506C71.615 23.8873 71.8643 24.3493 72.011 24.892C72.1577 25.42 72.231 26.0067 72.231 26.652V33.802C72.055 33.8313 71.8057 33.8753 71.483 33.934C71.175 33.978 70.823 34.022 70.427 34.066C70.031 34.11 69.5983 34.1467 69.129 34.176C68.6743 34.22 68.2197 34.242 67.765 34.242C67.1197 34.242 66.5257 34.176 65.983 34.044C65.4403 33.912 64.971 33.7067 64.575 33.428C64.179 33.1347 63.871 32.7533 63.651 32.284C63.431 31.8147 63.321 31.25 63.321 30.59C63.321 29.9593 63.4457 29.4167 63.695 28.962C63.959 28.5073 64.311 28.1407 64.751 27.862C65.191 27.5833 65.7043 27.378 66.291 27.246C66.8777 27.114 67.4937 27.048 68.139 27.048C68.3443 27.048 68.557 27.0627 68.777 27.092C68.997 27.1067 69.2023 27.136 69.393 27.18C69.5983 27.2093 69.7743 27.2387 69.921 27.268C70.0677 27.2973 70.1703 27.3193 70.229 27.334V26.762C70.229 26.4247 70.1923 26.0947 70.119 25.772C70.0457 25.4347 69.9137 25.1413 69.723 24.892C69.5323 24.628 69.2683 24.4227 68.931 24.276C68.6083 24.1147 68.183 24.034 67.655 24.034C66.9803 24.034 66.3863 24.0853 65.873 24.188C65.3743 24.276 65.0003 24.3713 64.751 24.474L64.509 22.78C64.773 22.6627 65.213 22.5527 65.829 22.45C66.445 22.3327 67.1123 22.274 67.831 22.274ZM83.0211 24.98C82.7718 24.7747 82.4125 24.5767 81.9431 24.386C81.4738 24.1953 80.9605 24.1 80.4031 24.1C79.8165 24.1 79.3105 24.21 78.8851 24.43C78.4745 24.6353 78.1371 24.9287 77.8731 25.31C77.6091 25.6767 77.4185 26.1167 77.3011 26.63C77.1838 27.1433 77.1251 27.6933 77.1251 28.28C77.1251 29.6147 77.4551 30.6487 78.1151 31.382C78.7751 32.1007 79.6551 32.46 80.7551 32.46C81.3125 32.46 81.7745 32.438 82.1411 32.394C82.5225 32.3353 82.8158 32.2767 83.0211 32.218V24.98ZM83.0211 17.28L85.0671 16.928V33.67C84.5978 33.802 83.9965 33.934 83.2631 34.066C82.5298 34.198 81.6865 34.264 80.7331 34.264C79.8531 34.264 79.0611 34.1247 78.3571 33.846C77.6531 33.5673 77.0518 33.1713 76.5531 32.658C76.0545 32.1447 75.6658 31.5213 75.3871 30.788C75.1231 30.04 74.9911 29.204 74.9911 28.28C74.9911 27.4 75.1011 26.5933 75.3211 25.86C75.5558 25.1267 75.8931 24.496 76.3331 23.968C76.7731 23.44 77.3085 23.0293 77.9391 22.736C78.5845 22.4427 79.3178 22.296 80.1391 22.296C80.7991 22.296 81.3785 22.384 81.8771 22.56C82.3905 22.736 82.7718 22.9047 83.0211 23.066V17.28ZM98.6822 28.28C98.6822 29.1893 98.5502 30.0107 98.2862 30.744C98.0222 31.4773 97.6482 32.108 97.1642 32.636C96.6949 33.164 96.1302 33.5747 95.4702 33.868C94.8102 34.1467 94.0916 34.286 93.3142 34.286C92.5369 34.286 91.8182 34.1467 91.1582 33.868C90.4982 33.5747 89.9262 33.164 89.4422 32.636C88.9729 32.108 88.6062 31.4773 88.3422 30.744C88.0782 30.0107 87.9462 29.1893 87.9462 28.28C87.9462 27.3853 88.0782 26.5713 88.3422 25.838C88.6062 25.09 88.9729 24.452 89.4422 23.924C89.9262 23.396 90.4982 22.9927 91.1582 22.714C91.8182 22.4207 92.5369 22.274 93.3142 22.274C94.0916 22.274 94.8102 22.4207 95.4702 22.714C96.1302 22.9927 96.6949 23.396 97.1642 23.924C97.6482 24.452 98.0222 25.09 98.2862 25.838C98.5502 26.5713 98.6822 27.3853 98.6822 28.28ZM96.5482 28.28C96.5482 26.9893 96.2549 25.97 95.6682 25.222C95.0962 24.4593 94.3116 24.078 93.3142 24.078C92.3169 24.078 91.5249 24.4593 90.9382 25.222C90.3662 25.97 90.0802 26.9893 90.0802 28.28C90.0802 29.5707 90.3662 30.5973 90.9382 31.36C91.5249 32.108 92.3169 32.482 93.3142 32.482C94.3116 32.482 95.0962 32.108 95.6682 31.36C96.2549 30.5973 96.5482 29.5707 96.5482 28.28ZM101.561 22.89C102.03 22.7727 102.653 22.648 103.431 22.516C104.208 22.384 105.103 22.318 106.115 22.318C107.024 22.318 107.779 22.45 108.381 22.714C108.982 22.9633 109.459 23.3227 109.811 23.792C110.177 24.2467 110.434 24.7967 110.581 25.442C110.727 26.0873 110.801 26.7987 110.801 27.576V34H108.755V28.016C108.755 27.312 108.703 26.7107 108.601 26.212C108.513 25.7133 108.359 25.31 108.139 25.002C107.919 24.694 107.625 24.474 107.259 24.342C106.892 24.1953 106.437 24.122 105.895 24.122C105.675 24.122 105.447 24.1293 105.213 24.144C104.978 24.1587 104.751 24.1807 104.531 24.21C104.325 24.2247 104.135 24.2467 103.959 24.276C103.797 24.3053 103.68 24.3273 103.607 24.342V34H101.561V22.89ZM118.066 32.526C118.55 32.526 118.975 32.5187 119.342 32.504C119.723 32.4747 120.038 32.4307 120.288 32.372V28.962C120.141 28.8887 119.899 28.83 119.562 28.786C119.239 28.7273 118.843 28.698 118.374 28.698C118.066 28.698 117.736 28.72 117.384 28.764C117.046 28.808 116.731 28.9033 116.438 29.05C116.159 29.182 115.924 29.3727 115.734 29.622C115.543 29.8567 115.448 30.172 115.448 30.568C115.448 31.3013 115.682 31.8147 116.152 32.108C116.621 32.3867 117.259 32.526 118.066 32.526ZM117.89 22.274C118.711 22.274 119.4 22.384 119.958 22.604C120.53 22.8093 120.984 23.11 121.322 23.506C121.674 23.8873 121.923 24.3493 122.07 24.892C122.216 25.42 122.29 26.0067 122.29 26.652V33.802C122.114 33.8313 121.864 33.8753 121.542 33.934C121.234 33.978 120.882 34.022 120.486 34.066C120.09 34.11 119.657 34.1467 119.188 34.176C118.733 34.22 118.278 34.242 117.824 34.242C117.178 34.242 116.584 34.176 116.042 34.044C115.499 33.912 115.03 33.7067 114.634 33.428C114.238 33.1347 113.93 32.7533 113.71 32.284C113.49 31.8147 113.38 31.25 113.38 30.59C113.38 29.9593 113.504 29.4167 113.754 28.962C114.018 28.5073 114.37 28.1407 114.81 27.862C115.25 27.5833 115.763 27.378 116.35 27.246C116.936 27.114 117.552 27.048 118.198 27.048C118.403 27.048 118.616 27.0627 118.836 27.092C119.056 27.1067 119.261 27.136 119.452 27.18C119.657 27.2093 119.833 27.2387 119.98 27.268C120.126 27.2973 120.229 27.3193 120.288 27.334V26.762C120.288 26.4247 120.251 26.0947 120.178 25.772C120.104 25.4347 119.972 25.1413 119.782 24.892C119.591 24.628 119.327 24.4227 118.99 24.276C118.667 24.1147 118.242 24.034 117.714 24.034C117.039 24.034 116.445 24.0853 115.932 24.188C115.433 24.276 115.059 24.3713 114.81 24.474L114.568 22.78C114.832 22.6627 115.272 22.5527 115.888 22.45C116.504 22.3327 117.171 22.274 117.89 22.274ZM127.734 34H125.688V22.56H127.734V34ZM126.7 20.492C126.333 20.492 126.018 20.3747 125.754 20.14C125.504 19.8907 125.38 19.5607 125.38 19.15C125.38 18.7393 125.504 18.4167 125.754 18.182C126.018 17.9327 126.333 17.808 126.7 17.808C127.066 17.808 127.374 17.9327 127.624 18.182C127.888 18.4167 128.02 18.7393 128.02 19.15C128.02 19.5607 127.888 19.8907 127.624 20.14C127.374 20.3747 127.066 20.492 126.7 20.492ZM133.672 32.812C133.672 33.208 133.54 33.5527 133.276 33.846C133.012 34.1393 132.653 34.286 132.198 34.286C131.744 34.286 131.384 34.1393 131.12 33.846C130.856 33.5527 130.724 33.208 130.724 32.812C130.724 32.416 130.856 32.0713 131.12 31.778C131.384 31.4847 131.744 31.338 132.198 31.338C132.653 31.338 133.012 31.4847 133.276 31.778C133.54 32.0713 133.672 32.416 133.672 32.812ZM141.638 34.264C140.714 34.264 139.9 34.1173 139.196 33.824C138.507 33.5307 137.92 33.12 137.436 32.592C136.967 32.064 136.615 31.4407 136.38 30.722C136.146 29.9887 136.028 29.182 136.028 28.302C136.028 27.422 136.153 26.6153 136.402 25.882C136.666 25.1487 137.033 24.518 137.502 23.99C137.972 23.4473 138.544 23.0293 139.218 22.736C139.908 22.428 140.67 22.274 141.506 22.274C142.02 22.274 142.533 22.318 143.046 22.406C143.56 22.494 144.051 22.6333 144.52 22.824L144.058 24.562C143.75 24.4153 143.391 24.298 142.98 24.21C142.584 24.122 142.159 24.078 141.704 24.078C140.56 24.078 139.68 24.4373 139.064 25.156C138.463 25.8747 138.162 26.9233 138.162 28.302C138.162 28.918 138.228 29.4827 138.36 29.996C138.507 30.5093 138.727 30.9493 139.02 31.316C139.328 31.6827 139.717 31.9687 140.186 32.174C140.656 32.3647 141.228 32.46 141.902 32.46C142.445 32.46 142.936 32.4087 143.376 32.306C143.816 32.2033 144.161 32.0933 144.41 31.976L144.696 33.692C144.579 33.7653 144.41 33.8387 144.19 33.912C143.97 33.9707 143.721 34.022 143.442 34.066C143.164 34.1247 142.863 34.1687 142.54 34.198C142.232 34.242 141.932 34.264 141.638 34.264ZM156.712 28.28C156.712 29.1893 156.58 30.0107 156.316 30.744C156.052 31.4773 155.678 32.108 155.194 32.636C154.724 33.164 154.16 33.5747 153.5 33.868C152.84 34.1467 152.121 34.286 151.344 34.286C150.566 34.286 149.848 34.1467 149.188 33.868C148.528 33.5747 147.956 33.164 147.472 32.636C147.002 32.108 146.636 31.4773 146.372 30.744C146.108 30.0107 145.976 29.1893 145.976 28.28C145.976 27.3853 146.108 26.5713 146.372 25.838C146.636 25.09 147.002 24.452 147.472 23.924C147.956 23.396 148.528 22.9927 149.188 22.714C149.848 22.4207 150.566 22.274 151.344 22.274C152.121 22.274 152.84 22.4207 153.5 22.714C154.16 22.9927 154.724 23.396 155.194 23.924C155.678 24.452 156.052 25.09 156.316 25.838C156.58 26.5713 156.712 27.3853 156.712 28.28ZM154.578 28.28C154.578 26.9893 154.284 25.97 153.698 25.222C153.126 24.4593 152.341 24.078 151.344 24.078C150.346 24.078 149.554 24.4593 148.968 25.222C148.396 25.97 148.11 26.9893 148.11 28.28C148.11 29.5707 148.396 30.5973 148.968 31.36C149.554 32.108 150.346 32.482 151.344 32.482C152.341 32.482 153.126 32.108 153.698 31.36C154.284 30.5973 154.578 29.5707 154.578 28.28ZM159.59 22.89C160.059 22.7727 160.675 22.648 161.438 22.516C162.215 22.384 163.11 22.318 164.122 22.318C164.855 22.318 165.471 22.4207 165.97 22.626C166.469 22.8167 166.887 23.1027 167.224 23.484C167.327 23.4107 167.488 23.308 167.708 23.176C167.928 23.044 168.199 22.9193 168.522 22.802C168.845 22.67 169.204 22.56 169.6 22.472C169.996 22.3693 170.421 22.318 170.876 22.318C171.756 22.318 172.475 22.45 173.032 22.714C173.589 22.9633 174.022 23.3227 174.33 23.792C174.653 24.2613 174.865 24.8187 174.968 25.464C175.085 26.1093 175.144 26.8133 175.144 27.576V34H173.098V28.016C173.098 27.3413 173.061 26.762 172.988 26.278C172.929 25.794 172.805 25.3907 172.614 25.068C172.438 24.7453 172.189 24.5107 171.866 24.364C171.558 24.2027 171.155 24.122 170.656 24.122C169.967 24.122 169.395 24.2173 168.94 24.408C168.5 24.584 168.199 24.7453 168.038 24.892C168.155 25.2733 168.243 25.6913 168.302 26.146C168.361 26.6007 168.39 27.0773 168.39 27.576V34H166.344V28.016C166.344 27.3413 166.307 26.762 166.234 26.278C166.161 25.794 166.029 25.3907 165.838 25.068C165.662 24.7453 165.413 24.5107 165.09 24.364C164.782 24.2027 164.386 24.122 163.902 24.122C163.697 24.122 163.477 24.1293 163.242 24.144C163.007 24.1587 162.78 24.1807 162.56 24.21C162.355 24.2247 162.164 24.2467 161.988 24.276C161.812 24.3053 161.695 24.3273 161.636 24.342V34H159.59V22.89ZM180.959 32.812C180.959 33.208 180.827 33.5527 180.563 33.846C180.299 34.1393 179.94 34.286 179.485 34.286C179.031 34.286 178.671 34.1393 178.407 33.846C178.143 33.5527 178.011 33.208 178.011 32.812C178.011 32.416 178.143 32.0713 178.407 31.778C178.671 31.4847 179.031 31.338 179.485 31.338C179.94 31.338 180.299 31.4847 180.563 31.778C180.827 32.0713 180.959 32.416 180.959 32.812ZM188.177 22.318C188.353 22.318 188.551 22.3327 188.771 22.362C189.006 22.3767 189.233 22.406 189.453 22.45C189.673 22.4793 189.871 22.516 190.047 22.56C190.238 22.5893 190.377 22.6187 190.465 22.648L190.113 24.43C189.952 24.3713 189.681 24.3053 189.299 24.232C188.933 24.144 188.456 24.1 187.869 24.1C187.488 24.1 187.107 24.144 186.725 24.232C186.359 24.3053 186.117 24.3567 185.999 24.386V34H183.953V23.044C184.437 22.868 185.039 22.7067 185.757 22.56C186.476 22.3987 187.283 22.318 188.177 22.318ZM201.548 33.67C201.078 33.7873 200.455 33.912 199.678 34.044C198.915 34.176 198.028 34.242 197.016 34.242C196.136 34.242 195.395 34.1173 194.794 33.868C194.192 33.604 193.708 33.2373 193.342 32.768C192.975 32.2987 192.711 31.7487 192.55 31.118C192.388 30.4727 192.308 29.7613 192.308 28.984V22.56H194.354V28.544C194.354 29.9373 194.574 30.9347 195.014 31.536C195.454 32.1373 196.194 32.438 197.236 32.438C197.456 32.438 197.683 32.4307 197.918 32.416C198.152 32.4013 198.372 32.3867 198.578 32.372C198.783 32.3427 198.966 32.3207 199.128 32.306C199.304 32.2767 199.428 32.2473 199.502 32.218V22.56H201.548V33.67Z" fill="#080B79"/>
<defs>
<linearGradient id="paint0_linear" x1="34.9951" y1="50.0143" x2="50.185" y2="25.8518" gradientUnits="userSpaceOnUse">
<stop stop-color="#3C84D2"/>
<stop offset="1" stop-color="#050574"/>
</linearGradient>
<linearGradient id="paint1_linear" x1="26.9928" y1="51.5778" x2="43.3718" y2="26.6108" gradientUnits="userSpaceOnUse">
<stop stop-color="#2166A3"/>
<stop offset="1" stop-color="#369FE3"/>
</linearGradient>
<linearGradient id="paint2_linear" x1="25.0072" y1="52" x2="1.46506" y2="51.2457" gradientUnits="userSpaceOnUse">
<stop stop-color="#050574"/>
<stop offset="1" stop-color="#3C84D2"/>
</linearGradient>
<linearGradient id="paint3_linear" x1="0.422241" y1="27.6134" x2="23.7124" y2="25.9394" gradientUnits="userSpaceOnUse">
<stop stop-color="#165792"/>
<stop offset="1" stop-color="#369FE3"/>
</linearGradient>
<linearGradient id="paint4_linear" x1="51.5778" y1="25.0072" x2="27.9873" y2="26.2929" gradientUnits="userSpaceOnUse">
<stop stop-color="#165792"/>
<stop offset="1" stop-color="#369FE3"/>
</linearGradient>
<linearGradient id="paint5_linear" x1="26.9928" y1="0" x2="50.535" y2="0.754275" gradientUnits="userSpaceOnUse">
<stop stop-color="#050574"/>
<stop offset="1" stop-color="#3C84D2"/>
</linearGradient>
<linearGradient id="paint6_linear" x1="25.0072" y1="0.422158" x2="8.62825" y2="25.3892" gradientUnits="userSpaceOnUse">
<stop stop-color="#2166A3"/>
<stop offset="1" stop-color="#369FE3"/>
</linearGradient>
<linearGradient id="paint7_linear" x1="0" y1="25.0071" x2="15.1899" y2="0.844652" gradientUnits="userSpaceOnUse">
<stop stop-color="#050574"/>
<stop offset="1" stop-color="#3C84D2"/>
</linearGradient>
</defs>
</svg>
