<svg width="82" height="81" viewBox="0 0 82 81" fill="none" xmlns="http://www.w3.org/2000/svg">
<g clip-path="url(#clip0)">
<circle cx="40.4644" cy="40.2282" r="39.5" stroke="#8E92A0"/>
<path d="M59.2862 27.6322C56.8619 26.6153 54.4357 26.2285 52.0107 26.2285C44.3127 26.2278 36.6154 30.1246 28.9173 30.1246C26.9868 30.1246 25.0574 29.8796 23.1268 29.2672C22.9099 29.1984 22.6924 29.1659 22.4799 29.1659C21.4043 29.1659 20.4644 29.9984 20.4644 31.154V50.9824C20.4644 51.7718 20.9162 52.5199 21.6418 52.8237C24.0662 53.8411 26.4924 54.228 28.9173 54.228C36.6154 54.228 44.3134 50.3312 52.0114 50.3312C53.942 50.3312 55.8713 50.5762 57.8019 51.1887C58.0188 51.2574 58.2363 51.2899 58.4488 51.2899C59.5244 51.2899 60.4644 50.4575 60.4644 49.3018V29.474C60.4637 28.684 60.0119 27.9366 59.2862 27.6322ZM23.4643 32.4921C24.7218 32.8071 26.0343 32.9652 27.3842 33.0502C27.0168 34.8871 25.4018 36.2714 23.4643 36.2714V32.4921ZM23.4643 50.3043V47.3181C25.6124 47.3181 27.3505 49.0225 27.4461 51.1556C26.038 51.0424 24.7218 50.7612 23.4643 50.3043ZM40.464 46.2281C37.7022 46.2281 35.4641 43.5413 35.4641 40.2282C35.4641 36.9145 37.7028 34.2283 40.464 34.2283C43.2253 34.2283 45.464 36.9145 45.464 40.2282C45.464 43.5426 43.2246 46.2281 40.464 46.2281ZM57.4638 47.9644C56.3688 47.69 55.2319 47.5362 54.0688 47.4369C54.4357 45.8069 55.7876 44.5694 57.4638 44.3569V47.9644ZM57.4638 33.2077C55.5332 32.9633 54.0351 31.3515 53.9757 29.3609C55.1969 29.4965 56.3563 29.7503 57.4638 30.1521V33.2077Z" fill="#D41C3D"/>
</g>
<defs>
<clipPath id="clip0">
<rect width="81" height="81" fill="white" transform="translate(0.00537109)"/>
</clipPath>
</defs>
</svg>
