<svg width="80" height="80" viewBox="0 0 80 80" fill="none" xmlns="http://www.w3.org/2000/svg">
<circle cx="40" cy="40" r="39.5" stroke="#8E92A0"/>
<path fill-rule="evenodd" clip-rule="evenodd" d="M39.3676 20.2704C39.7781 20.1335 40.222 20.1335 40.6325 20.2704L55.678 25.2855C56.4946 25.5577 57.0455 26.322 57.0455 27.1829V42.7868C57.0455 52.2018 49.415 59.8323 40 59.8323C30.5851 59.8323 22.9546 52.2018 22.9546 42.7868V27.1829C22.9546 26.322 23.5055 25.5577 24.3221 25.2855L39.3676 20.2704ZM39.139 36.3631L40 34.6108L40.8611 36.3631C41.2971 37.2503 42.1422 37.8657 43.1204 38.0085L45.0617 38.2918L43.6486 39.6752C42.9452 40.3638 42.6243 41.3537 42.79 42.324L43.122 44.2675L41.4008 43.3587C40.5243 42.896 39.4758 42.896 38.5993 43.3587L36.8781 44.2675L37.21 42.324C37.3757 41.3537 37.0549 40.3638 36.3515 39.6752L34.9384 38.2918L36.8797 38.0085C37.8579 37.8657 38.703 37.2503 39.139 36.3631ZM39.1026 31.9024C39.4688 31.1571 40.5313 31.1571 40.8975 31.9024L42.6561 35.481C42.8014 35.7767 43.0831 35.9819 43.4092 36.0295L47.3485 36.6044C48.1674 36.7239 48.495 37.7295 47.9037 38.3085L45.0477 41.1044C44.8132 41.3339 44.7063 41.6639 44.7615 41.9873L45.435 45.9308C45.5746 46.7483 44.7157 47.3707 43.9823 46.9835L40.467 45.1274C40.1748 44.9731 39.8253 44.9731 39.5331 45.1274L36.0178 46.9835C35.2844 47.3707 34.4255 46.7483 34.5651 45.9308L35.2386 41.9873C35.2938 41.6639 35.1869 41.3339 34.9524 41.1044L32.0964 38.3085C31.505 37.7295 31.8327 36.7239 32.6515 36.6044L36.5909 36.0295C36.917 35.9819 37.1987 35.7767 37.344 35.481L39.1026 31.9024Z" fill="#D41C3D"/>
</svg>
