<svg width="24" height="24" viewBox="0 0 24 24" fill="none" xmlns="http://www.w3.org/2000/svg">
<path d="M21.3145 13.6695C21.3081 13.7047 21.3037 13.7404 21.297 13.7756L21.2627 13.5736C21.2815 13.6051 21.297 13.6378 21.3145 13.6696C21.4189 13.1035 21.4717 12.5291 21.4723 11.9535C21.4723 10.6756 21.2221 9.4357 20.7277 8.2686C20.2508 7.1412 19.5686 6.12868 18.6986 5.25941C17.83 4.39013 16.8168 3.70778 15.69 3.23093C14.5232 2.73724 13.2834 2.48703 12.0055 2.48703C11.4033 2.48703 10.8 2.54357 10.2129 2.65627C10.2117 2.65658 10.2101 2.65658 10.2085 2.65689C10.2415 2.67436 10.2749 2.68994 10.3072 2.70803L10.1081 2.67686C10.1415 2.6706 10.1752 2.66355 10.2085 2.65689C9.40308 2.22868 8.49715 2 7.58025 2C6.08337 2 4.67584 2.58289 3.61728 3.64176C2.55903 4.70033 1.97583 6.10777 1.97583 7.60474C1.97634 8.55564 2.21901 9.49075 2.68096 10.3219C2.68699 10.2876 2.69115 10.253 2.6978 10.2187L2.7321 10.4171C2.71433 10.386 2.69874 10.3536 2.68096 10.3219C2.58674 10.8607 2.53906 11.4065 2.53843 11.9535C2.53843 13.2317 2.78865 14.4713 3.28296 15.6387C3.75918 16.7664 4.44184 17.7782 5.31081 18.6475C6.18071 19.5168 7.1926 20.2001 8.32063 20.6757C9.4875 21.1703 10.7276 21.4209 12.0055 21.4209C12.5618 21.4209 13.1193 21.37 13.6634 21.2736C13.6317 21.2558 13.5993 21.2396 13.5669 21.2209L13.7692 21.2564C13.7343 21.2631 13.699 21.2672 13.6635 21.2736C14.5044 21.7495 15.4543 21.9998 16.4206 22C17.9172 22 19.3241 21.418 20.3826 20.3589C21.4414 19.3009 22.0241 17.8932 22.0241 16.3962C22.0236 15.4417 21.7793 14.5032 21.3145 13.6696V13.6695ZM12.0433 17.7513C8.68009 17.7513 7.17545 16.0978 7.17545 14.8586C7.17545 14.2229 7.6447 13.7775 8.29142 13.7775C9.73066 13.7775 9.35789 15.8441 12.0433 15.8441C13.418 15.8441 14.1771 15.0976 14.1771 14.3337C14.1771 13.8744 13.9505 13.365 13.0453 13.1418L10.0539 12.3951C7.64471 11.7909 7.20748 10.4886 7.20748 9.26428C7.20748 6.72246 9.60074 5.76805 11.8483 5.76805C13.9187 5.76805 16.3593 6.91229 16.3593 8.43721C16.3593 9.09066 15.7935 9.47063 15.1471 9.47063C13.9187 9.47063 14.1448 7.77045 11.6706 7.77045C10.4428 7.77045 9.76269 8.32647 9.76269 9.12206C9.76269 9.91616 10.7324 10.1698 11.5743 10.3615L13.7886 10.853C16.2139 11.3934 16.8289 12.8094 16.8289 14.1432C16.8289 16.2089 15.2433 17.7513 12.0433 17.7513ZM13.5669 21.2209C13.5993 21.2397 13.6317 21.2558 13.6635 21.2736C13.699 21.2672 13.7343 21.2631 13.7692 21.2563L13.5669 21.2209ZM21.297 13.7756C21.3037 13.7404 21.3081 13.7048 21.3145 13.6696C21.297 13.6378 21.2814 13.6051 21.2628 13.5736L21.297 13.7756ZM2.6978 10.2187C2.69115 10.253 2.68699 10.2876 2.68096 10.3219C2.69874 10.3536 2.71433 10.386 2.7321 10.4171L2.6978 10.2187ZM10.3072 2.70803C10.2749 2.68994 10.2415 2.67436 10.2085 2.65689C10.1752 2.66355 10.1415 2.67052 10.1081 2.67686L10.3072 2.70803Z" fill="#00AFF0"/>
</svg>
