<svg width="81" height="80" viewBox="0 0 81 80" fill="none" xmlns="http://www.w3.org/2000/svg">
<circle cx="40.2554" cy="40" r="39.5" stroke="#8E92A0"/>
<path d="M42.0963 36.5684V29.2046C42.0963 28.1879 41.272 27.3637 40.2553 27.3637C39.2386 27.3637 38.4144 28.1879 38.4144 29.2046V38.2503C38.4144 39.3549 39.3098 40.2503 40.4144 40.2503H47.6191C48.6358 40.2503 49.4601 39.4261 49.4601 38.4093C49.4601 37.3926 48.6358 36.5684 47.6191 36.5684H42.0963ZM51.9711 48.2842L41.6695 58.5858C40.8885 59.3668 39.6222 59.3668 38.8411 58.5858L28.5395 48.2842C26.2224 45.967 24.6444 43.0148 24.0051 39.8008C23.3658 36.5869 23.694 33.2555 24.948 30.228C26.202 27.2005 28.3257 24.6129 31.0504 22.7923C33.775 20.9717 36.9784 20 40.2553 20C43.5323 20 46.7356 20.9717 49.4603 22.7923C52.185 24.6129 54.3086 27.2005 55.5626 30.228C56.8167 33.2555 57.1448 36.5869 56.5055 39.8008C55.8662 43.0148 54.2883 45.967 51.9711 48.2842Z" fill="#D41C3D"/>
</svg>
