<svg width="24" height="24" viewBox="0 0 24 24" fill="none" xmlns="http://www.w3.org/2000/svg">
<g filter="url(#filter0_f)">
<path d="M0.592041 23.4397L2.20009 17.5943C1.21136 15.8839 0.684372 13.9409 0.689808 11.9546C0.689808 5.73031 5.77484 0.669762 12.0226 0.669762C15.054 0.669762 17.9008 1.84427 20.0359 3.97672C22.1764 6.10917 23.3554 8.94528 23.3499 11.96C23.3499 18.1843 18.2648 23.2449 12.0171 23.2449H12.0117C10.1157 23.2449 8.25221 22.7686 6.59522 21.8701L0.592041 23.4397ZM6.87774 19.8242L7.21998 20.0299C8.66512 20.885 10.3221 21.3342 12.0117 21.3396H12.0171C17.2055 21.3396 21.4321 17.1342 21.4321 11.96C21.4321 9.45404 20.4542 7.09971 18.6777 5.32436C16.9012 3.54911 14.5325 2.57491 12.0171 2.57491C6.82338 2.57491 2.59669 6.78033 2.59669 11.9545C2.59669 13.7245 3.09106 15.451 4.0364 16.9448L4.25912 17.302L3.30844 20.7606L6.87774 19.8242Z" fill="black" fill-opacity="0.24"/>
</g>
<path d="M1.10596 22.8363L2.64043 17.2612C1.69423 15.626 1.19649 13.7715 1.19716 11.884C1.19716 5.95079 6.04748 1.12408 11.9975 1.12408C14.8895 1.12408 17.599 2.24657 19.6378 4.2777C21.6766 6.30892 22.798 9.01363 22.798 11.8893C22.798 17.8225 17.9477 22.6492 11.9976 22.6492H11.9923C10.1841 22.6492 8.40814 22.1949 6.83074 21.3396L1.10596 22.8364V22.8363Z" fill="url(#paint0_linear)"/>
<path d="M0.714355 23.2265L2.30244 17.4537C1.32599 15.7646 0.805468 13.8457 0.810904 11.884C0.810904 5.73703 5.83285 0.739235 12.0031 0.739235C14.9968 0.739235 17.8082 1.89908 19.9169 4.0051C22.0307 6.11113 23.195 8.91203 23.1897 11.8893C23.1897 18.0363 18.1678 23.0341 11.9975 23.0341H11.9923C10.1234 23.0334 8.28443 22.5666 6.64302 21.6764L0.714355 23.2266V23.2265ZM6.92198 19.6559L7.25999 19.859C8.68723 20.7036 10.3236 21.1473 11.9923 21.1526H11.9976C17.1215 21.1526 21.2958 16.9994 21.2958 11.8893C21.2958 9.41453 20.33 7.08934 18.5755 5.33612C16.821 3.58291 14.4817 2.62076 11.9976 2.62076C6.86836 2.62076 2.69417 6.77397 2.69417 11.884C2.69417 13.6319 3.18235 15.337 4.11597 16.8122L4.33597 17.165L3.39701 20.5806L6.92198 19.6559Z" fill="white"/>
<path d="M9.2023 7.21765C8.99298 6.75259 8.77298 6.74185 8.57454 6.73653C8.4136 6.73121 8.22584 6.73121 8.03799 6.73121C7.85024 6.73121 7.54972 6.80069 7.29222 7.0786C7.03463 7.35661 6.31567 8.0301 6.31567 9.40389C6.31567 10.7722 7.31903 12.0978 7.45851 12.2848C7.59799 12.472 9.39539 15.3744 12.2336 16.4916C14.5944 17.4217 15.0773 17.2345 15.587 17.1864C16.1021 17.1383 17.2396 16.5129 17.4756 15.8608C17.7063 15.2087 17.7063 14.6528 17.6365 14.5352C17.5668 14.4176 17.379 14.3482 17.1 14.2091C16.821 14.0702 15.4475 13.3967 15.19 13.3005C14.9324 13.2043 14.7447 13.1615 14.5623 13.4394C14.3744 13.7174 13.838 14.3428 13.6769 14.5299C13.516 14.717 13.3497 14.7383 13.0706 14.5994C12.7917 14.4604 11.8903 14.1664 10.8226 13.2149C9.991 12.4773 9.42764 11.5632 9.2666 11.2853C9.10565 11.0074 9.25057 10.8576 9.39005 10.7188C9.51341 10.5958 9.66901 10.3927 9.80859 10.2323C9.94807 10.072 9.99634 9.9544 10.0875 9.76726C10.1788 9.5802 10.1358 9.41986 10.0661 9.28091C9.99634 9.14185 9.44911 7.76816 9.2023 7.21765Z" fill="white"/>
<defs>
<filter id="filter0_f" x="0.0317298" y="0.10945" width="23.8785" height="23.8906" filterUnits="userSpaceOnUse" color-interpolation-filters="sRGB">
<feFlood flood-opacity="0" result="BackgroundImageFix"/>
<feBlend mode="normal" in="SourceGraphic" in2="BackgroundImageFix" result="shape"/>
<feGaussianBlur stdDeviation="0.280156" result="effect1_foregroundBlur"/>
</filter>
<linearGradient id="paint0_linear" x1="11.9516" y1="22.8349" x2="11.9516" y2="1.12277" gradientUnits="userSpaceOnUse">
<stop stop-color="#20B038"/>
<stop offset="1" stop-color="#60D66A"/>
</linearGradient>
</defs>
</svg>
